<svg width="162" height="29" viewBox="0 0 162 29" fill="none" xmlns="http://www.w3.org/2000/svg">
<path d="M0 3.26948H8.24761V27.6407H11.3582V3.26948H19.6428V0.384766H0V3.26948Z" fill="white"/>
<path d="M40.618 13.3095C41.6035 11.9791 42.1024 10.3119 42.1024 8.35109C42.1024 5.90165 41.2914 3.93882 39.69 2.51802C38.0967 1.10338 35.8998 0.384766 33.1608 0.384766H22.9463V27.6386H26.0569V16.5043H33.5592L39.0329 27.6386H42.4905L36.717 15.9766C38.3657 15.4756 39.6776 14.5804 40.62 13.3075L40.618 13.3095ZM38.9159 8.42706C38.9159 10.0347 38.4149 11.322 37.4253 12.2521C36.4316 13.1863 35.0231 13.6586 33.2348 13.6586H26.0548V3.23252H33.1608C34.9266 3.23252 36.3433 3.68217 37.376 4.56914C38.3985 5.44995 38.918 6.74756 38.918 8.42501L38.9159 8.42706Z" fill="white"/>
<path d="M54.1226 0.384766L44.1113 27.6386H47.2855L49.9095 20.5162H61.9945L64.6185 27.6386H67.8686L57.7465 0.384766H54.1226ZM55.9315 4.01478C55.9787 4.15235 56.0177 4.28991 56.0526 4.42747L60.9802 17.7444H50.8848L55.7672 4.45416C55.8247 4.31865 55.8801 4.17288 55.9294 4.01478H55.9315Z" fill="white"/>
<path d="M116.893 0.384766H113.142L100.511 16.1655V0.384766H97.4023V27.6407H100.511V20.8344L105.549 14.5455L113.349 27.6407H116.977L107.613 11.9708L116.893 0.384766Z" fill="white"/>
<path d="M123.606 15.3812H135.715V12.5334H123.606V3.26948H136.951V0.384766H120.495V27.6407H136.988V24.7539H123.606V15.3812Z" fill="white"/>
<path d="M155.823 15.9786C157.472 15.4777 158.784 14.5825 159.726 13.3095C160.712 11.9791 161.211 10.3119 161.211 8.35109C161.211 5.90165 160.4 3.93882 158.798 2.51802C157.205 1.10338 155.008 0.384766 152.269 0.384766H142.055V27.6386H145.165V16.5043H152.668L158.141 27.6386H161.599L155.825 15.9766L155.823 15.9786ZM158.024 8.42706C158.024 10.0347 157.523 11.322 156.534 12.2521C155.54 13.1863 154.129 13.6586 152.343 13.6586H145.163V3.23252H152.269C154.035 3.23252 155.452 3.68217 156.484 4.56914C157.507 5.44995 158.026 6.74756 158.026 8.42501L158.024 8.42706Z" fill="white"/>
<path d="M92.3228 5.08595L92.2274 4.97848C92.1288 4.86739 91.9588 4.85729 91.8477 4.95592L89.4771 7.06063C89.366 7.15926 89.3559 7.32926 89.4545 7.44034L89.55 7.54782C89.6486 7.6589 89.8186 7.669 89.9297 7.57038L92.3003 5.46566C92.4113 5.36704 92.4214 5.19704 92.3228 5.08595Z" fill="white"/>
<path d="M91.3463 4.12565L91.241 4.02782C91.1322 3.9267 90.962 3.93294 90.8609 4.04176L88.6847 6.38355C88.5836 6.49236 88.5898 6.66255 88.6987 6.76367L88.8039 6.8615C88.9128 6.96262 89.083 6.95638 89.1841 6.84757L91.3602 4.50577C91.4613 4.39696 91.4551 4.22677 91.3463 4.12565Z" fill="white"/>
<path d="M90.3259 3.2155L90.2117 3.12821C90.0937 3.03799 89.9249 3.06051 89.8347 3.17851L87.9404 5.65612C87.8502 5.77412 87.8727 5.94293 87.9907 6.03315L88.1049 6.12045C88.2229 6.21067 88.3917 6.18815 88.4819 6.07014L90.3762 3.59254C90.4664 3.47453 90.4439 3.30573 90.3259 3.2155Z" fill="white"/>
<path d="M89.2351 2.38605L89.1131 2.3101C88.987 2.2316 88.8211 2.2702 88.7426 2.39631L87.0956 5.04232C87.0171 5.16844 87.0557 5.3343 87.1818 5.4128L87.3039 5.48875C87.43 5.56725 87.5958 5.52865 87.6743 5.40254L89.3213 2.75653C89.3998 2.63042 89.3612 2.46455 89.2351 2.38605Z" fill="white"/>
<path d="M88.0542 1.68349L87.9255 1.61959C87.7924 1.55354 87.631 1.60786 87.565 1.74092L86.2047 4.48111C86.1387 4.61416 86.193 4.77557 86.3261 4.84162L86.4548 4.90552C86.5878 4.97157 86.7492 4.91725 86.8153 4.78419L88.1755 2.044C88.2416 1.91095 88.1873 1.74954 88.0542 1.68349Z" fill="white"/>
<path d="M86.8133 1.08668L86.679 1.0354C86.5402 0.982411 86.3848 1.05195 86.3318 1.19072L85.2734 3.96236C85.2204 4.10113 85.2899 4.25659 85.4287 4.30958L85.563 4.36085C85.7018 4.41384 85.8572 4.3443 85.9102 4.20553L86.9686 1.4339C87.0216 1.29512 86.952 1.13967 86.8133 1.08668Z" fill="white"/>
<path d="M85.519 0.615452L85.3804 0.577285C85.2372 0.537838 85.0891 0.621956 85.0497 0.765169L84.2716 3.58986C84.2322 3.73307 84.3163 3.88114 84.4595 3.92059L84.5981 3.95876C84.7413 3.99821 84.8894 3.91409 84.9288 3.77087L85.7068 0.946187C85.7463 0.802974 85.6622 0.654899 85.519 0.615452Z" fill="white"/>
<path d="M84.1839 0.277008L84.0423 0.252298C83.896 0.226758 83.7566 0.324682 83.7311 0.471016L83.2341 3.31884C83.2085 3.46518 83.3065 3.60451 83.4528 3.63005L83.5944 3.65476C83.7407 3.6803 83.88 3.58237 83.9056 3.43604L84.4026 0.588212C84.4281 0.441878 84.3302 0.302548 84.1839 0.277008Z" fill="white"/>
<path d="M82.8216 0.0648644L82.6783 0.0538379C82.5302 0.0424416 82.4009 0.153268 82.3895 0.301377L82.1681 3.17964C82.1567 3.32774 82.2675 3.45705 82.4156 3.46844L82.5589 3.47947C82.707 3.49087 82.8363 3.38004 82.8477 3.23193L83.0692 0.353673C83.0806 0.205565 82.9697 0.0762607 82.8216 0.0648644Z" fill="white"/>
<path d="M81.4429 0.00773196L81.2992 0.0104807C81.1507 0.0133218 81.0326 0.136023 81.0355 0.284541L81.0902 3.12561C81.0931 3.27413 81.2158 3.39222 81.3643 3.38938L81.508 3.38663C81.6565 3.38379 81.7746 3.26109 81.7717 3.11257L81.717 0.271504C81.7141 0.122986 81.5914 0.00489085 81.4429 0.00773196Z" fill="white"/>
<path d="M80.0603 0.0306915L79.9176 0.0472108C79.77 0.0642843 79.6642 0.197747 79.6813 0.345309L80.0077 3.16604C80.0247 3.3136 80.1582 3.41938 80.3058 3.4023L80.4485 3.38579C80.5961 3.36871 80.7019 3.23525 80.6848 3.08769L80.3584 0.266961C80.3414 0.1194 80.2079 0.0136181 80.0603 0.0306915Z" fill="white"/>
<path d="M78.7053 0.298259L78.5647 0.328385C78.4195 0.359523 78.327 0.502511 78.3581 0.647756L78.9215 3.27566C78.9526 3.4209 79.0956 3.5134 79.2409 3.48227L79.3814 3.45214C79.5267 3.421 79.6192 3.27802 79.588 3.13277L79.0246 0.50487C78.9935 0.359624 78.8505 0.267121 78.7053 0.298259Z" fill="white"/>
<path d="M77.3582 0.594941L77.2212 0.638399C77.0796 0.683315 77.0013 0.83451 77.0462 0.976103L77.8762 3.59271C77.9211 3.7343 78.0723 3.81267 78.2139 3.76775L78.3509 3.7243C78.4925 3.67938 78.5709 3.52819 78.526 3.38659L77.6959 0.76999C77.651 0.628398 77.4998 0.550025 77.3582 0.594941Z" fill="white"/>
<path d="M76.0681 1.07832L75.9359 1.13471C75.7992 1.19299 75.7357 1.351 75.794 1.48764L76.8259 3.90688C76.8842 4.04351 77.0422 4.10703 77.1788 4.04875L77.311 3.99236C77.4477 3.93408 77.5112 3.77607 77.4529 3.63944L76.421 1.2202C76.3627 1.08356 76.2047 1.02004 76.0681 1.07832Z" fill="white"/>
<path d="M74.8174 1.65596L74.6912 1.72476C74.5608 1.79587 74.5127 1.95924 74.5838 2.08966L75.836 4.38625C75.9071 4.51667 76.0704 4.56475 76.2009 4.49364L76.3271 4.42484C76.4575 4.35373 76.5056 4.19036 76.4345 4.05994L75.1823 1.76336C75.1112 1.63294 74.9478 1.58486 74.8174 1.65596Z" fill="white"/>
<path d="M73.6474 2.37313L73.5284 2.4537C73.4054 2.53698 73.3732 2.70421 73.4565 2.82721L74.9022 4.96261C74.9855 5.08561 75.1527 5.11782 75.2757 5.03453L75.3947 4.95396C75.5178 4.87068 75.55 4.70345 75.4667 4.58045L74.0209 2.44505C73.9376 2.32205 73.7704 2.28984 73.6474 2.37313Z" fill="white"/>
<path d="M72.5367 3.18323L72.426 3.27484C72.3115 3.36953 72.2955 3.53907 72.3902 3.65353L73.9973 5.59623C74.092 5.71068 74.2616 5.72671 74.376 5.63202L74.4868 5.54041C74.6012 5.44572 74.6172 5.27618 74.5226 5.16172L72.9154 3.21903C72.8207 3.10457 72.6512 3.08854 72.5367 3.18323Z" fill="white"/>
<path d="M71.5071 4.09439L71.4057 4.1962C71.3008 4.30142 71.3011 4.47172 71.4063 4.57657L73.1617 6.32585C73.267 6.43071 73.4373 6.43041 73.5421 6.32519L73.6436 6.22339C73.7484 6.11816 73.7481 5.94786 73.6429 5.84301L71.8875 4.09373C71.7823 3.98888 71.612 3.98917 71.5071 4.09439Z" fill="white"/>
<path d="M70.5979 5.12055L70.5067 5.23161C70.4124 5.3464 70.429 5.51589 70.5438 5.61017L72.3921 7.12842C72.5069 7.22271 72.6764 7.20609 72.7707 7.0913L72.8619 6.98024C72.9562 6.86545 72.9396 6.69597 72.8248 6.60168L70.9764 5.08344C70.8617 4.98915 70.6922 5.00577 70.5979 5.12055Z" fill="white"/>
<path d="M69.7917 6.22876L69.7115 6.34804C69.6287 6.47134 69.6615 6.63845 69.7848 6.7213L71.719 8.02105C71.8423 8.1039 72.0094 8.07111 72.0923 7.94782L72.1724 7.82853C72.2553 7.70524 72.2225 7.53812 72.0992 7.45527L70.165 6.15552C70.0417 6.07267 69.8745 6.10546 69.7917 6.22876Z" fill="white"/>
<path d="M69.0684 7.38307L69 7.50949C68.9293 7.64016 68.978 7.80337 69.1087 7.87402L71.2127 9.01169C71.3434 9.08234 71.5066 9.03369 71.5773 8.90302L71.6456 8.7766C71.7163 8.64593 71.6676 8.48273 71.537 8.41207L69.4329 7.2744C69.3022 7.20375 69.139 7.2524 69.0684 7.38307Z" fill="white"/>
<path d="M68.4955 8.62082L68.4396 8.75321C68.3818 8.89005 68.4459 9.04784 68.5827 9.10564L70.6443 9.97648C70.7811 10.0343 70.9389 9.97022 70.9967 9.83338L71.0527 9.70099C71.1105 9.56415 71.0464 9.40636 70.9096 9.34856L68.848 8.47771C68.7111 8.41991 68.5533 8.48398 68.4955 8.62082Z" fill="white"/>
<path d="M68.0843 9.91479L68.0414 10.0519C67.9969 10.1937 68.0758 10.3446 68.2176 10.389L70.3003 11.0417C70.442 11.0861 70.5929 11.0072 70.6373 10.8655L70.6803 10.7283C70.7247 10.5866 70.6458 10.4356 70.5041 10.3912L68.4214 9.73856C68.2797 9.69414 68.1288 9.77304 68.0843 9.91479Z" fill="white"/>
<path d="M67.6554 11.2046L67.6258 11.3452C67.5951 11.4906 67.6881 11.6332 67.8335 11.6639L69.9932 12.119C70.1386 12.1496 70.2812 12.0566 70.3119 11.9113L70.3415 11.7706C70.3721 11.6253 70.2791 11.4826 70.1338 11.452L67.9741 10.9969C67.8287 10.9662 67.686 11.0592 67.6554 11.2046Z" fill="white"/>
<path d="M67.4767 12.5489L67.4606 12.6917C67.4441 12.8393 67.5503 12.9724 67.698 12.989L69.7914 13.2238C69.939 13.2403 70.0721 13.1341 70.0887 12.9865L70.1047 12.8437C70.1212 12.696 70.015 12.5629 69.8674 12.5464L67.7739 12.3116C67.6263 12.295 67.4932 12.4013 67.4767 12.5489Z" fill="white"/>
<path d="M67.4235 13.8969L67.4212 14.0406C67.4189 14.1892 67.5374 14.3115 67.6859 14.3138L69.743 14.3461C69.8915 14.3484 70.0138 14.2299 70.0161 14.0814L70.0184 13.9377C70.0207 13.7892 69.9022 13.6669 69.7537 13.6645L67.6966 13.6322C67.5481 13.6299 67.4258 13.7484 67.4235 13.8969Z" fill="white"/>
<path d="M67.4689 15.2429L67.4804 15.3862C67.4923 15.5343 67.622 15.6446 67.7701 15.6327L69.7757 15.4714C69.9238 15.4594 70.0341 15.3298 70.0222 15.1817L70.0107 15.0384C69.9988 14.8904 69.8691 14.78 69.721 14.7919L67.7154 14.9533C67.5673 14.9652 67.4569 15.0949 67.4689 15.2429Z" fill="white"/>
<path d="M67.6249 16.58L67.6501 16.7215C67.6761 16.8678 67.8158 16.9652 67.9621 16.9392L69.9854 16.5787C70.1317 16.5527 70.2291 16.413 70.2031 16.2668L70.1779 16.1253C70.1518 15.979 70.0122 15.8816 69.8659 15.9077L67.8425 16.2681C67.6963 16.2941 67.5988 16.4338 67.6249 16.58Z" fill="white"/>
<path d="M67.8724 17.9053L67.9111 18.0437C67.951 18.1868 68.0994 18.2704 68.2425 18.2304L70.2279 17.6761C70.371 17.6361 70.4546 17.4877 70.4146 17.3447L70.376 17.2062C70.336 17.0632 70.1877 16.9796 70.0446 17.0195L68.0591 17.5739C67.9161 17.6138 67.8325 17.7622 67.8724 17.9053Z" fill="white"/>
<path d="M68.3368 19.1648L68.3885 19.2989C68.442 19.4375 68.5977 19.5065 68.7363 19.453L70.4756 18.7818C70.6142 18.7284 70.6832 18.5727 70.6297 18.4341L70.5779 18.3C70.5245 18.1614 70.3688 18.0924 70.2302 18.1459L68.4909 18.817C68.3523 18.8705 68.2833 19.0262 68.3368 19.1648Z" fill="white"/>
<path d="M68.9314 20.3634L68.9958 20.4919C69.0623 20.6247 69.2239 20.6785 69.3567 20.612L71.0035 19.7874C71.1363 19.7208 71.1901 19.5592 71.1235 19.4264L71.0592 19.2979C70.9927 19.1651 70.8311 19.1113 70.6983 19.1778L69.0515 20.0025C68.9187 20.069 68.8649 20.2306 68.9314 20.3634Z" fill="white"/>
<path d="M69.5893 21.5176L69.6657 21.6393C69.7446 21.7652 69.9106 21.8032 70.0364 21.7243L71.4905 20.8121C71.6163 20.7332 71.6543 20.5672 71.5754 20.4414L71.499 20.3196C71.4201 20.1938 71.2541 20.1558 71.1283 20.2347L69.6742 21.1468C69.5484 21.2258 69.5104 21.3918 69.5893 21.5176Z" fill="white"/>
<path d="M70.3517 22.6027L70.4394 22.7166C70.53 22.8343 70.6989 22.8562 70.8166 22.7656L72.1277 21.7559C72.2454 21.6652 72.2674 21.4964 72.1767 21.3787L72.089 21.2648C71.9984 21.1471 71.8295 21.1252 71.7118 21.2158L70.4007 22.2255C70.283 22.3161 70.2611 22.485 70.3517 22.6027Z" fill="white"/>
<path d="M71.2239 23.5991L71.3221 23.704C71.4236 23.8125 71.5938 23.8181 71.7022 23.7166L72.8881 22.6069C72.9965 22.5054 73.0022 22.3352 72.9007 22.2268L72.8025 22.1218C72.701 22.0134 72.5308 22.0077 72.4223 22.1092L71.2365 23.2189C71.128 23.3204 71.1224 23.4906 71.2239 23.5991Z" fill="white"/>
<path d="M72.1758 24.5142L72.2836 24.6092C72.395 24.7075 72.565 24.6968 72.6632 24.5854L73.6938 23.4164C73.792 23.305 73.7813 23.135 73.6699 23.0368L73.5621 22.9417C73.4507 22.8435 73.2807 22.8542 73.1825 22.9656L72.1519 24.1346C72.0537 24.246 72.0644 24.416 72.1758 24.5142Z" fill="white"/>
<path d="M73.1862 25.3625L73.3026 25.4468C73.423 25.5339 73.5911 25.5069 73.6782 25.3866L74.5896 24.1276C74.6767 24.0073 74.6498 23.8391 74.5294 23.752L74.413 23.6677C74.2927 23.5806 74.1245 23.6076 74.0374 23.7279L73.1261 24.9869C73.039 25.1072 73.0659 25.2754 73.1862 25.3625Z" fill="white"/>
<path d="M74.2593 26.1378L74.3832 26.2106C74.5114 26.2857 74.6762 26.2428 74.7513 26.1147L75.5306 24.7865C75.6057 24.6584 75.5628 24.4936 75.4347 24.4184L75.3107 24.3457C75.1826 24.2705 75.0178 24.3135 74.9426 24.4416L74.1634 25.7698C74.0882 25.8979 74.1312 26.0627 74.2593 26.1378Z" fill="white"/>
<path d="M75.4606 26.6817L75.591 26.7422C75.7257 26.8048 75.8857 26.7462 75.9482 26.6115L76.5412 25.334C76.6038 25.1992 76.5452 25.0393 76.4105 24.9767L76.2801 24.9162C76.1454 24.8537 75.9855 24.9122 75.9229 25.0469L75.3299 26.3245C75.2674 26.4592 75.3259 26.6192 75.4606 26.6817Z" fill="white"/>
<path d="M76.6508 27.2545L76.7863 27.3023C76.9265 27.3516 77.08 27.278 77.1294 27.1379L77.6177 25.7513C77.667 25.6112 77.5934 25.4576 77.4533 25.4083L77.3178 25.3605C77.1776 25.3112 77.0241 25.3848 76.9747 25.5249L76.4864 26.9115C76.4371 27.0516 76.5107 27.2052 76.6508 27.2545Z" fill="white"/>
<path d="M77.9148 27.6196L78.0543 27.6541C78.1985 27.6898 78.3444 27.6019 78.38 27.4577L78.7278 26.0526C78.7635 25.9084 78.6755 25.7625 78.5313 25.7269L78.3918 25.6923C78.2476 25.6566 78.1018 25.7446 78.0661 25.8888L77.7183 27.2939C77.6827 27.4381 77.7706 27.5839 77.9148 27.6196Z" fill="white"/>
<path d="M79.1992 27.9055L79.3413 27.9265C79.4883 27.9482 79.625 27.8467 79.6467 27.6997L79.8528 26.3043C79.8745 26.1574 79.7729 26.0207 79.626 25.999L79.4838 25.978C79.3368 25.9563 79.2001 26.0578 79.1784 26.2048L78.9724 27.6002C78.9507 27.7471 79.0522 27.8838 79.1992 27.9055Z" fill="white"/>
<path d="M80.5068 28.0065L80.6503 28.0137C80.7987 28.0213 80.925 27.9071 80.9326 27.7587L80.999 26.4464C81.0065 26.298 80.8924 26.1717 80.744 26.1641L80.6005 26.1569C80.4521 26.1494 80.3258 26.2635 80.3183 26.4119L80.2518 27.7242C80.2443 27.8726 80.3584 27.9989 80.5068 28.0065Z" fill="white"/>
<path d="M81.8162 28.0109L81.9598 28.0044C82.1082 27.9977 82.2231 27.8719 82.2163 27.7235L82.1606 26.497C82.1539 26.3486 82.0281 26.2337 81.8797 26.2405L81.7362 26.247C81.5878 26.2537 81.4729 26.3795 81.4797 26.5279L81.5354 27.7544C81.5421 27.9028 81.6679 28.0176 81.8162 28.0109Z" fill="white"/>
<path d="M83.1188 27.896L83.2611 27.8758C83.4081 27.8549 83.5104 27.7187 83.4894 27.5716L83.3335 26.476C83.3126 26.3289 83.1764 26.2267 83.0293 26.2476L82.887 26.2679C82.74 26.2888 82.6377 26.425 82.6587 26.572L82.8146 27.6677C82.8355 27.8147 82.9717 27.917 83.1188 27.896Z" fill="white"/>
<path d="M84.4045 27.6742L84.5442 27.6404C84.6886 27.6055 84.7773 27.4601 84.7424 27.3157L84.4967 26.3C84.4618 26.1556 84.3164 26.0668 84.172 26.1018L84.0323 26.1356C83.8879 26.1705 83.7992 26.3159 83.8341 26.4602L84.0799 27.476C84.1148 27.6204 84.2602 27.7091 84.4045 27.6742Z" fill="white"/>
<path d="M85.6725 27.346L85.8083 27.2989C85.9487 27.2503 86.0231 27.0971 85.9745 26.9568L85.6493 26.0177C85.6007 25.8774 85.4475 25.803 85.3072 25.8516L85.1713 25.8986C85.031 25.9472 84.9566 26.1004 85.0052 26.2408L85.3304 27.1798C85.379 27.3202 85.5322 27.3946 85.6725 27.346Z" fill="white"/>
<path d="M86.9138 26.9277L87.0445 26.8678C87.1796 26.806 87.2389 26.6464 87.1771 26.5113L86.7549 25.5891C86.693 25.454 86.5334 25.3947 86.3984 25.4565L86.2677 25.5163C86.1326 25.5782 86.0733 25.7378 86.1351 25.8729L86.5573 26.7951C86.6191 26.9301 86.7788 26.9895 86.9138 26.9277Z" fill="white"/>
<path d="M88.0922 26.3427L88.2165 26.2706C88.345 26.1961 88.3888 26.0316 88.3143 25.903L87.8036 25.022C87.7291 24.8935 87.5645 24.8497 87.436 24.9242L87.3117 24.9963C87.1832 25.0708 87.1394 25.2353 87.2139 25.3639L87.7246 26.2449C87.7991 26.3734 87.9637 26.4172 88.0922 26.3427Z" fill="white"/>
<path d="M89.2064 25.6533L89.3233 25.5697C89.4441 25.4832 89.4719 25.3152 89.3854 25.1944L88.8703 24.4749C88.7838 24.3541 88.6158 24.3263 88.495 24.4127L88.3782 24.4964C88.2574 24.5829 88.2296 24.7509 88.316 24.8717L88.8312 25.5912C88.9176 25.712 89.0857 25.7398 89.2064 25.6533Z" fill="white"/>
<path d="M90.2476 24.8572L90.3559 24.7627C90.4678 24.6651 90.4794 24.4952 90.3818 24.3833L89.8459 23.769C89.7483 23.6571 89.5784 23.6455 89.4665 23.7431L89.3582 23.8376C89.2462 23.9353 89.2346 24.1052 89.3323 24.2171L89.8681 24.8314C89.9658 24.9433 90.1357 24.9549 90.2476 24.8572Z" fill="white"/>
<path d="M91.2311 23.9815L91.3298 23.8771C91.4319 23.7691 91.4272 23.5989 91.3192 23.4968L90.7449 22.9537C90.637 22.8516 90.4667 22.8564 90.3647 22.9643L90.2659 23.0688C90.1638 23.1767 90.1686 23.3469 90.2765 23.449L90.8509 23.9921C90.9588 24.0942 91.129 24.0894 91.2311 23.9815Z" fill="white"/>
<path d="M92.1205 23.0131L92.2088 22.8997C92.3 22.7825 92.279 22.6135 92.1618 22.5223L91.5899 22.0771C91.4727 21.9858 91.3037 22.0069 91.2124 22.1241L91.1241 22.2375C91.0329 22.3547 91.0539 22.5237 91.1711 22.6149L91.7431 23.0602C91.8603 23.1514 92.0293 23.1304 92.1205 23.0131Z" fill="white"/>
<path d="M92.9224 21.9647L92.9994 21.8433C93.079 21.7179 93.0419 21.5517 92.9165 21.4721L92.3721 21.1266C92.2467 21.047 92.0805 21.0842 92.0009 21.2096L91.9239 21.331C91.8443 21.4564 91.8815 21.6226 92.0069 21.7022L92.5512 22.0476C92.6766 22.1272 92.8428 22.0901 92.9224 21.9647Z" fill="white"/>
</svg>
