<svg width="56" height="56" viewBox="0 0 56 56" fill="none" xmlns="http://www.w3.org/2000/svg">
<path d="M0 8C0 3.58172 3.58172 0 8 0H48C52.4183 0 56 3.58172 56 8V48C56 52.4183 52.4183 56 48 56H8C3.58172 56 0 52.4183 0 48V8Z" fill="#D2F072"/>
<path d="M48 28.2344L44.3999 28.2344" stroke="#022C22" stroke-miterlimit="10"/>
<path d="M47.8914 26.5681L44.3743 26.8711" stroke="#022C22" stroke-miterlimit="10"/>
<path d="M47.6357 24.9209L44.2275 25.5127" stroke="#022C22" stroke-miterlimit="10"/>
<path d="M47.2363 23.3049L43.9608 24.1689" stroke="#022C22" stroke-miterlimit="10"/>
<path d="M46.696 21.7322L43.5749 22.8506" stroke="#022C22" stroke-miterlimit="10"/>
<path d="M46.0198 20.2142L43.0728 21.5674" stroke="#022C22" stroke-miterlimit="10"/>
<path d="M45.2135 18.7635L42.4578 20.3301" stroke="#022C22" stroke-miterlimit="10"/>
<path d="M44.283 17.3887L41.7335 19.1465" stroke="#022C22" stroke-miterlimit="10"/>
<path d="M43.2364 16.1027L40.9055 18.0283" stroke="#022C22" stroke-miterlimit="10"/>
<path d="M42.082 14.9127L39.9799 16.9824" stroke="#022C22" stroke-miterlimit="10"/>
<path d="M40.8291 13.8288L38.9627 16.0186" stroke="#022C22" stroke-miterlimit="10"/>
<path d="M39.4869 12.8582L37.8618 15.1436" stroke="#022C22" stroke-miterlimit="10"/>
<path d="M38.0669 12.0085L36.6849 14.3652" stroke="#022C22" stroke-miterlimit="10"/>
<path d="M36.5794 11.2843L35.4409 13.6885" stroke="#022C22" stroke-miterlimit="10"/>
<path d="M35.0365 10.6918L34.1387 13.1201" stroke="#022C22" stroke-miterlimit="10"/>
<path d="M33.45 10.2352L32.7888 12.665" stroke="#022C22" stroke-miterlimit="10"/>
<path d="M31.8321 9.91751L31.4005 12.3271" stroke="#022C22" stroke-miterlimit="10"/>
<path d="M30.1952 9.74016L29.9846 12.1094" stroke="#022C22" stroke-miterlimit="10"/>
<path d="M8.13666 26.4754L13.9214 26.9736" stroke="white" stroke-miterlimit="10"/>
<path d="M8.35681 24.7288L14.0753 25.7217" stroke="white" stroke-miterlimit="10"/>
<path d="M8.76947 22.9949L14.3783 24.4746" stroke="white" stroke-miterlimit="10"/>
<path d="M9.31323 21.3131L14.7698 23.2686" stroke="white" stroke-miterlimit="10"/>
<path d="M10.0038 19.6844L15.2666 22.1006" stroke="white" stroke-miterlimit="10"/>
<path d="M10.7534 18.1171L15.7821 20.9756" stroke="white" stroke-miterlimit="10"/>
<path d="M11.7166 16.6281L16.4732 19.9072" stroke="white" stroke-miterlimit="10"/>
<path d="M12.8081 15.2276L17.2565 18.9023" stroke="white" stroke-miterlimit="10"/>
<path d="M14.0194 13.9261L18.1254 17.9687" stroke="white" stroke-miterlimit="10"/>
<path d="M15.325 12.7473L19.0901 17.0996" stroke="white" stroke-miterlimit="10"/>
<path d="M16.7637 11.6595L20.0942 16.3428" stroke="white" stroke-miterlimit="10"/>
<path d="M18.2758 10.711L21.1791 15.6621" stroke="white" stroke-miterlimit="10"/>
<path d="M19.866 9.89563L22.32 15.0771" stroke="white" stroke-miterlimit="10"/>
<path d="M21.5224 9.22039L23.5084 14.5928" stroke="white" stroke-miterlimit="10"/>
<path d="M23.2324 8.68961L24.7353 14.2119" stroke="white" stroke-miterlimit="10"/>
<path d="M24.9828 8.30728L25.9912 13.9375" stroke="white" stroke-miterlimit="10"/>
<path d="M26.7605 8.07703L27.2666 13.7725" stroke="white" stroke-miterlimit="10"/>
<path d="M28.5516 7.99975L28.5516 13.7168" stroke="white" stroke-miterlimit="10"/>
<path d="M8 28.2344L13.8067 28.2344" stroke="white" stroke-miterlimit="10"/>
<path d="M8.07812 29.998L13.8628 29.4998" stroke="white" stroke-miterlimit="10"/>
<path d="M8.3125 31.748L14.031 30.7554" stroke="white" stroke-miterlimit="10"/>
<path d="M8.7002 33.4717L14.3091 31.992" stroke="white" stroke-miterlimit="10"/>
<path d="M9.22852 35.1592L14.7069 33.196" stroke="white" stroke-miterlimit="10"/>
<path d="M9.94629 36.7764L15.1669 34.3796" stroke="white" stroke-miterlimit="10"/>
<path d="M10.8037 38.3232L15.7319 35.522" stroke="white" stroke-miterlimit="10"/>
<path d="M11.793 39.7881L16.3973 36.6139" stroke="white" stroke-miterlimit="10"/>
<path d="M12.9062 41.1602L17.1586 37.6469" stroke="white" stroke-miterlimit="10"/>
<path d="M14.1348 42.4287L18.0108 38.6127" stroke="white" stroke-miterlimit="10"/>
<path d="M15.4688 43.5859L18.9474 39.5041" stroke="white" stroke-miterlimit="10"/>
<path d="M16.8975 44.6221L19.9616 40.3135" stroke="white" stroke-miterlimit="10"/>
<path d="M18.4092 45.5303L21.0455 41.0347" stroke="white" stroke-miterlimit="10"/>
<path d="M19.9941 46.3037L22.1929 41.6611" stroke="white" stroke-miterlimit="10"/>
<path d="M21.6377 46.9365L23.3934 42.1875" stroke="white" stroke-miterlimit="10"/>
<path d="M23.3291 47.4258L24.6396 42.6102" stroke="white" stroke-miterlimit="10"/>
<path d="M25.0537 47.7676L25.9207 42.9256" stroke="white" stroke-miterlimit="10"/>
<path d="M26.7988 47.959L27.228 43.1295" stroke="white" stroke-miterlimit="10"/>
<path d="M28.5518 48L28.5518 43.2204" stroke="white" stroke-miterlimit="10"/>
<path d="M30.2984 47.8906L29.8814 43.1975" stroke="#022C22" stroke-miterlimit="10"/>
<path d="M32.0257 47.6318L31.207 43.06" stroke="#022C22" stroke-miterlimit="10"/>
<path d="M33.7206 47.2266L32.5183 42.8089" stroke="#022C22" stroke-miterlimit="10"/>
<path d="M35.3703 46.6787L33.8052 42.4454" stroke="#022C22" stroke-miterlimit="10"/>
<path d="M36.9624 45.9922L35.058 41.9714" stroke="#022C22" stroke-miterlimit="10"/>
<path d="M38.485 45.1738L36.2668 41.3912" stroke="#022C22" stroke-miterlimit="10"/>
<path d="M39.9266 44.2285L37.4221 40.7067" stroke="#022C22" stroke-miterlimit="10"/>
<path d="M41.2768 43.165L38.5146 39.9242" stroke="#022C22" stroke-miterlimit="10"/>
<path d="M42.5253 41.9922L39.5363 39.0493" stroke="#022C22" stroke-miterlimit="10"/>
<path d="M43.6634 40.7187L40.4785 38.0875" stroke="#022C22" stroke-miterlimit="10"/>
<path d="M44.6826 39.3555L41.334 37.0469" stroke="#022C22" stroke-miterlimit="10"/>
<path d="M45.5754 37.9111L42.0955 35.9332" stroke="#022C22" stroke-miterlimit="10"/>
<path d="M46.3357 36.3994L42.7571 34.7564" stroke="#022C22" stroke-miterlimit="10"/>
<path d="M46.9579 34.8301L43.313 33.524" stroke="#022C22" stroke-miterlimit="10"/>
<path d="M47.4382 33.2168L43.7589 32.2461" stroke="#022C22" stroke-miterlimit="10"/>
<path d="M47.7732 31.5713L44.0905 30.9319" stroke="#022C22" stroke-miterlimit="10"/>
<path d="M47.9606 29.9062L44.3047 29.5913" stroke="#022C22" stroke-miterlimit="10"/>
</svg>
