<svg width="64" height="64" viewBox="0 0 64 64" fill="none" xmlns="http://www.w3.org/2000/svg">
<path d="M0 8C0 3.58172 3.58172 0 8 0H56C60.4183 0 64 3.58172 64 8V56C64 60.4183 60.4183 64 56 64H8C3.58172 64 0 60.4183 0 56V8Z" fill="#D2F072"/>
<rect x="30.6667" y="10.6667" width="2.66667" height="16" rx="1.33333" fill="#264132"/>
<rect x="30.6667" y="37.3333" width="2.66667" height="16" rx="1.33333" fill="#264132"/>
<rect x="46.1423" y="15.9724" width="2.66667" height="16" rx="1.33333" transform="rotate(45 46.1423 15.9724)" fill="#264132"/>
<rect x="27.2861" y="34.8284" width="2.66667" height="16" rx="1.33333" transform="rotate(45 27.2861 34.8284)" fill="#264132"/>
<rect x="37.3333" y="33.3333" width="2.66667" height="16" rx="1.33333" transform="rotate(-90 37.3333 33.3333)" fill="#264132"/>
<rect x="10.6667" y="33.3333" width="2.66667" height="16" rx="1.33333" transform="rotate(-90 10.6667 33.3333)" fill="#264132"/>
<rect x="34.8284" y="36.7141" width="2.66667" height="16" rx="1.33333" transform="rotate(-45 34.8284 36.7141)" fill="#264132"/>
<rect x="15.9719" y="17.8582" width="2.66667" height="16" rx="1.33333" transform="rotate(-45 15.9719 17.8582)" fill="#264132"/>
</svg>
