<svg width="48" height="48" viewBox="0 0 48 48" fill="none" xmlns="http://www.w3.org/2000/svg">
<path d="M0 8C0 3.58172 3.58172 0 8 0H40C44.4183 0 48 3.58172 48 8V40C48 44.4183 44.4183 48 40 48H8C3.58172 48 0 44.4183 0 40V8Z" fill="#C9FF7F"/>
<path d="M13.3893 18.48L15.7379 17.7257C15.8958 17.6764 16.0651 17.6781 16.222 17.7304C16.3789 17.7827 16.5154 17.883 16.6122 18.0171L18.2236 20.5714L27.0693 16.1657C27.7668 15.7567 28.5452 15.5048 29.35 15.4278C30.155 15.3508 30.9669 15.4505 31.7294 15.7199C32.4918 15.9892 33.1862 16.4218 33.764 16.9874C34.3418 17.5529 34.7893 18.2378 35.075 18.9943C35.193 19.3762 35.1544 19.7893 34.9681 20.1428C34.7816 20.4964 34.4625 20.7615 34.0808 20.88L28.2693 22.7657L27.6865 22.9543L26.5893 26.7085C26.556 26.8382 26.4894 26.957 26.3963 27.0532C26.3031 27.1494 26.1865 27.2197 26.0579 27.2571L23.4179 28.1143C23.2794 28.1741 23.127 28.1947 22.9776 28.1738C22.8281 28.1529 22.6872 28.0913 22.5704 27.9958C22.4536 27.9002 22.3653 27.7743 22.3153 27.632C22.2652 27.4896 22.2552 27.3362 22.2865 27.1885L22.835 24.5143L22.4579 24.6343L16.7836 26.4685C16.6003 26.5365 16.4052 26.5674 16.2098 26.5593C16.0144 26.5512 15.8226 26.5043 15.6455 26.4213C15.4684 26.3384 15.3096 26.221 15.1783 26.0761C15.047 25.9311 14.9459 25.7615 14.8808 25.5771L12.8922 19.4057C12.8384 19.217 12.8602 19.0148 12.953 18.842C13.0459 18.6692 13.2024 18.5393 13.3893 18.48Z" stroke="#004E44" stroke-width="1.5" stroke-linecap="round" stroke-linejoin="round"/>
<path d="M35.1431 35.1428H12.8574" stroke="#004E44" stroke-width="1.5" stroke-linecap="round" stroke-linejoin="round"/>
</svg>
