<svg width="48" height="48" viewBox="0 0 48 48" fill="none" xmlns="http://www.w3.org/2000/svg">
<path d="M0 8C0 3.58172 3.58172 0 8 0H40C44.4183 0 48 3.58172 48 8V40C48 44.4183 44.4183 48 40 48H8C3.58172 48 0 44.4183 0 40V8Z" fill="#C9FF7F"/>
<path d="M26.0996 17.4926C26.0996 18.692 26.5761 19.8423 27.4242 20.6904C28.2722 21.5385 29.4225 22.0149 30.6219 22.0149C31.8213 22.0149 32.9715 21.5385 33.8196 20.6904C34.6677 19.8423 35.1442 18.692 35.1442 17.4926C35.1442 16.2932 34.6677 15.143 33.8196 14.2949C32.9715 13.4468 31.8213 12.9703 30.6219 12.9703C29.4225 12.9703 28.2722 13.4468 27.4242 14.2949C26.5761 15.143 26.0996 16.2932 26.0996 17.4926Z" stroke="#004E44" stroke-width="1.5" stroke-linecap="round" stroke-linejoin="round"/>
<path d="M31.5869 16.5352L30.6191 17.49" stroke="#004E44" stroke-width="1.5" stroke-linecap="round" stroke-linejoin="round"/>
<path d="M29.5484 35.0294V30.5964C29.5484 28.1604 27.5735 26.1856 25.1375 26.1856H21.6834V19.3551C21.6834 18.269 20.803 17.3885 19.7169 17.3885C18.6308 17.3885 17.7504 18.269 17.7504 19.3551V28.3089L17.2977 28.3941C15.2082 28.7873 14.2138 31.1999 15.4194 32.9513L15.5667 33.1653L16.8483 35.0294" stroke="#004E44" stroke-width="1.5" stroke-linecap="round" stroke-linejoin="round"/>
<path d="M14.0012 21.014C13.9007 20.5824 13.8477 20.1326 13.8477 19.6704C13.8477 16.408 16.4924 13.7633 19.7547 13.7633C20.7477 13.7633 21.6834 14.0083 22.5047 14.4411" stroke="#004E44" stroke-width="1.5" stroke-linecap="round" stroke-linejoin="round"/>
</svg>
