<svg width="48" height="48" viewBox="0 0 48 48" fill="none" xmlns="http://www.w3.org/2000/svg">
<path d="M0 8C0 3.58172 3.58172 0 8 0H40C44.4183 0 48 3.58172 48 8V40C48 44.4183 44.4183 48 40 48H8C3.58172 48 0 44.4183 0 40V8Z" fill="#C9FF7F"/>
<g clip-path="url(#clip0_371_6666)">
<path d="M14.5717 15.4285C14.117 15.4285 13.681 15.6091 13.3595 15.9306C13.038 16.2521 12.8574 16.6882 12.8574 17.1428V33.4285C12.8574 33.8832 13.038 34.3193 13.3595 34.6407C13.681 34.9621 14.117 35.1428 14.5717 35.1428H33.4289C33.8835 35.1428 34.3196 34.9621 34.641 34.6407C34.9625 34.3193 35.1431 33.8832 35.1431 33.4285V17.1428C35.1431 16.6882 34.9625 16.2521 34.641 15.9306C34.3196 15.6091 33.8835 15.4285 33.4289 15.4285H30.0003" stroke="#004E44" stroke-width="1.5" stroke-linecap="round" stroke-linejoin="round"/>
<path d="M18 12.8571V18" stroke="#004E44" stroke-width="1.5" stroke-linecap="round" stroke-linejoin="round"/>
<path d="M30 12.8571V18" stroke="#004E44" stroke-width="1.5" stroke-linecap="round" stroke-linejoin="round"/>
<path d="M18 15.4285H26.5714" stroke="#004E44" stroke-width="1.5" stroke-linecap="round" stroke-linejoin="round"/>
<path d="M24.4258 19.9755L25.86 22.8606C25.8921 22.9335 25.9429 22.9967 26.0074 23.0436C26.0719 23.0905 26.1476 23.1194 26.2269 23.1274L29.4121 23.611C29.5032 23.6229 29.589 23.6604 29.6595 23.7192C29.7301 23.7781 29.7824 23.8557 29.8104 23.9432C29.8383 24.0307 29.8409 24.1243 29.8176 24.2131C29.7944 24.302 29.7462 24.3824 29.679 24.4449L27.3276 26.6796C27.2925 26.7464 27.2742 26.8208 27.2742 26.8963C27.2742 26.9719 27.2925 27.0463 27.3276 27.1131L27.7778 30.2818C27.7971 30.3733 27.7893 30.4685 27.7555 30.5557C27.7217 30.643 27.6633 30.7186 27.5873 30.7733C27.5114 30.828 27.4213 30.8595 27.3278 30.8641C27.2343 30.8686 27.1416 30.8458 27.0607 30.7986L24.2257 29.2978C24.1523 29.2647 24.0727 29.2476 23.9922 29.2476C23.9117 29.2476 23.8321 29.2647 23.7588 29.2978L20.9237 30.7986C20.8429 30.8458 20.7501 30.8686 20.6567 30.8641C20.5632 30.8595 20.473 30.828 20.3971 30.7733C20.3212 30.7186 20.2628 30.643 20.229 30.5557C20.1952 30.4685 20.1874 30.3733 20.2066 30.2818L20.7403 27.1131C20.7632 27.0396 20.7676 26.9615 20.7531 26.8859C20.7385 26.8102 20.7055 26.7393 20.6569 26.6796L18.3055 24.4282C18.2431 24.365 18.1993 24.2859 18.1789 24.1995C18.1585 24.1131 18.1624 24.0227 18.1899 23.9383C18.2175 23.8539 18.2677 23.7787 18.3352 23.721C18.4026 23.6633 18.4847 23.6252 18.5723 23.611L21.7576 23.1441C21.8368 23.1361 21.9126 23.1071 21.9771 23.0602C22.0415 23.0134 22.0924 22.9502 22.1244 22.8772L23.5586 19.9922C23.597 19.9105 23.6575 19.8412 23.7332 19.7921C23.8089 19.743 23.8968 19.7161 23.9871 19.7143C24.0773 19.7126 24.1662 19.7361 24.2437 19.7823C24.3213 19.8284 24.3843 19.8954 24.4258 19.9755Z" stroke="#004E44" stroke-width="1.5" stroke-linecap="round" stroke-linejoin="round"/>
</g>
<defs>
<clipPath id="clip0_371_6666">
<rect width="24" height="24" fill="white" transform="translate(12 12)"/>
</clipPath>
</defs>
</svg>
