<svg width="48" height="48" viewBox="0 0 48 48" fill="none" xmlns="http://www.w3.org/2000/svg">
<path d="M0 8C0 3.58172 3.58172 0 8 0H40C44.4183 0 48 3.58172 48 8V40C48 44.4183 44.4183 48 40 48H8C3.58172 48 0 44.4183 0 40V8Z" fill="#C9FF7F"/>
<g clip-path="url(#clip0_371_6654)">
<path d="M35.108 24.8839C34.9388 27.0105 34.1627 29.0438 32.8719 30.7423C31.581 32.4408 29.8299 33.733 27.8262 34.4654C25.8226 35.1979 23.6508 35.3398 21.5689 34.8744C19.487 34.4088 17.5825 33.3555 16.0816 31.8394C14.5807 30.3235 13.5466 28.4084 13.102 26.3219C12.6575 24.2355 12.8212 22.0652 13.5738 20.0691C14.3264 18.0729 15.6361 16.3348 17.3475 15.0611C19.0588 13.7874 21.0998 13.0318 23.228 12.8839" stroke="#004E44" stroke-width="1.5" stroke-linecap="round" stroke-linejoin="round"/>
<path d="M28.7823 25.8685C28.4728 26.6653 27.9695 27.3723 27.3179 27.9257C26.6664 28.4791 25.8873 28.8614 25.0509 29.0379C24.2145 29.2145 23.3473 29.1799 22.5277 28.937C21.7081 28.6942 20.9619 28.2509 20.3567 27.6472C19.7515 27.0436 19.3063 26.2985 19.0613 25.4796C18.8164 24.6606 18.7795 23.7935 18.9539 22.9567C19.1283 22.1198 19.5086 21.3397 20.0603 20.6867C20.612 20.0338 21.3178 19.5287 22.1137 19.217" stroke="#004E44" stroke-width="1.5" stroke-linecap="round" stroke-linejoin="round"/>
<path d="M24 23.9999L28.2857 19.7142" stroke="#004E44" stroke-width="1.5" stroke-linecap="round" stroke-linejoin="round"/>
<path d="M31.7154 20.5714L28.2868 19.7143L27.4297 16.2857L30.8583 12.8571L31.7154 16.2857L35.144 17.1428L31.7154 20.5714Z" stroke="#004E44" stroke-width="1.5" stroke-linecap="round" stroke-linejoin="round"/>
</g>
<defs>
<clipPath id="clip0_371_6654">
<rect width="24" height="24" fill="white" transform="translate(12 12)"/>
</clipPath>
</defs>
</svg>
