<svg width="162" height="40" viewBox="0 0 162 40" fill="none" xmlns="http://www.w3.org/2000/svg">
<path d="M18.9497 39.8911H16.5742V33.2881H18.8861C19.537 33.2881 20.1077 33.4277 20.6026 33.709C21.0953 33.9882 21.4834 34.3783 21.7626 34.8752C22.0418 35.3721 22.1835 35.949 22.1835 36.606C22.1835 37.263 22.0459 37.8215 21.7729 38.3184C21.4998 38.8152 21.12 39.2012 20.6354 39.4784C20.1509 39.7556 19.5883 39.8932 18.9497 39.8932V39.8911ZM17.7302 33.8219V39.3696L17.1799 38.8276H18.843C19.2824 38.8276 19.6622 38.7372 19.9804 38.5565C20.2987 38.3759 20.543 38.1192 20.7114 37.7887C20.8797 37.4581 20.9639 37.0639 20.9639 36.606C20.9639 36.1482 20.8756 35.7334 20.7011 35.4008C20.5266 35.0682 20.2761 34.8095 19.9517 34.6288C19.6273 34.4481 19.2351 34.3578 18.7773 34.3578H17.1779L17.7281 33.824L17.7302 33.8219Z" fill="white"/>
<path d="M26.938 39.8901H25.7451L28.1309 33.2871H29.3135L31.6993 39.8901H30.4797L29.9459 38.3626H27.4801L26.938 39.8901ZM28.5723 35.2561L27.8127 37.3873H29.6112L28.8516 35.2561C28.8269 35.1658 28.8002 35.0754 28.7694 34.9851C28.7387 34.8947 28.7222 34.8167 28.7161 34.751C28.7037 34.8106 28.6853 34.8886 28.6565 34.981C28.6298 35.0754 28.6011 35.1658 28.5703 35.2561H28.5723Z" fill="white"/>
<path d="M37.1149 33.2881V39.8911H35.959V33.2881H37.1149Z" fill="white"/>
<path d="M43.1696 33.2881V39.8911H42.0137V33.2881H43.1696ZM42.2128 39.8911V38.8255H45.925V39.8911H42.2128Z" fill="white"/>
<path d="M51.2181 37.2898L48.9863 33.2882H50.2778L51.5795 35.6904C51.6267 35.7807 51.6698 35.8649 51.7068 35.9429C51.7437 36.021 51.7786 36.099 51.8156 36.177C51.8464 36.1236 51.869 36.0723 51.8875 36.023C51.9059 35.9758 51.9285 35.9245 51.9552 35.8731C51.9819 35.8218 52.0148 35.7602 52.0497 35.6884L53.3411 33.2861H54.5977L52.3761 37.2878V39.8892H51.2202V37.2878L51.2181 37.2898Z" fill="white"/>
<path d="M67.5158 40.0004C66.8711 40.0004 66.3126 39.8608 65.8404 39.5795C65.3682 39.3003 65.0007 38.904 64.7379 38.3969C64.4751 37.8877 64.3457 37.2882 64.3457 36.5942C64.3457 35.9002 64.4792 35.3089 64.7481 34.7956C65.015 34.2844 65.3949 33.8861 65.8815 33.6027C66.3701 33.3194 66.9327 33.1777 67.5712 33.1777C68.0948 33.1777 68.565 33.2742 68.9797 33.4672C69.3945 33.6602 69.7394 33.9292 70.0104 34.2762C70.2814 34.6232 70.4539 35.0338 70.5258 35.5101H69.3062C69.1912 35.1241 68.9797 34.8244 68.6697 34.6109C68.3597 34.3973 67.9819 34.2906 67.5363 34.2906C67.138 34.2906 66.791 34.385 66.4933 34.5698C66.1956 34.7546 65.9657 35.0215 65.8014 35.3644C65.6372 35.7073 65.5571 36.1179 65.5571 36.5922C65.5571 37.0665 65.6392 37.4525 65.8014 37.7974C65.9636 38.1423 66.1936 38.4113 66.4933 38.6022C66.791 38.7911 67.1401 38.8876 67.5363 38.8876C67.988 38.8876 68.374 38.7788 68.6964 38.5632C69.0187 38.3456 69.2343 38.054 69.3431 37.6865H70.5442C70.4601 38.1444 70.2773 38.5488 69.9981 38.8979C69.7189 39.2469 69.3657 39.5179 68.9407 39.7109C68.5157 39.9039 68.0414 40.0004 67.5179 40.0004H67.5158Z" fill="white"/>
<path d="M76.1718 39.8911H75.0159V33.2881H76.1718V36.025H79.0996V33.2881H80.2556V39.8911H79.0996V37.0906H76.1718V39.8911Z" fill="white"/>
<path d="M85.7007 39.8901H84.5078L86.8936 33.2871H88.0762L90.462 39.8901H89.2424L88.7086 38.3626H86.2428L85.7007 39.8901ZM87.3371 35.2561L86.5774 37.3873H88.376L87.6163 35.2561C87.5917 35.1658 87.565 35.0754 87.5342 34.9851C87.5034 34.8947 87.487 34.8167 87.4808 34.751C87.4685 34.8106 87.45 34.8886 87.4213 34.981C87.3946 35.0754 87.3658 35.1658 87.335 35.2561H87.3371Z" fill="white"/>
<path d="M95.8815 33.2871V39.8901H94.7256V33.2871H95.8815ZM94.9247 39.8901V38.8245H98.6369V39.8901H94.9247Z" fill="white"/>
<path d="M104.175 33.2881V39.8911H103.02V33.2881H104.175ZM103.217 39.8911V38.8255H106.929V39.8911H103.217Z" fill="white"/>
<path d="M115.414 39.8911H111.312V33.2881H115.414V34.3537H112.063L112.47 33.9841V36.0537H115.108V37.0741H112.47V39.1971L112.063 38.8276H115.414V39.8932V39.8911Z" fill="white"/>
<path d="M121.231 39.8901H120.094V33.2871H121.241L124.674 38.4816H124.34V33.2871H125.477V39.8901H124.34L120.899 34.7038H121.233V39.8901H121.231Z" fill="white"/>
<path d="M133.265 34.264C132.832 34.264 132.46 34.3625 132.154 34.5617C131.846 34.7608 131.612 35.036 131.45 35.3891C131.288 35.7423 131.205 36.159 131.205 36.6395C131.205 37.1199 131.292 37.5408 131.468 37.8817C131.645 38.2225 131.885 38.4791 132.195 38.6537C132.505 38.8282 132.862 38.9165 133.265 38.9165C133.56 38.9165 133.821 38.8795 134.047 38.8035C134.273 38.7276 134.464 38.6167 134.62 38.4689C134.776 38.321 134.899 38.1424 134.985 37.9309C135.072 37.7195 135.117 37.4854 135.117 37.2267V36.6477L135.659 37.198H133.121V36.1775H136.193V39.8897H135.217L135.119 38.8241L135.254 38.9596C135.158 39.1587 135.006 39.3353 134.798 39.4934C134.591 39.6495 134.345 39.7726 134.061 39.8589C133.778 39.9451 133.47 39.9903 133.14 39.9903C132.526 39.9903 131.982 39.8507 131.509 39.5694C131.037 39.2901 130.665 38.8959 130.399 38.3909C130.13 37.8858 129.996 37.2924 129.996 36.6107C129.996 35.9291 130.134 35.3501 130.407 34.8347C130.68 34.3194 131.066 33.9149 131.563 33.6193C132.06 33.3236 132.636 33.1758 133.293 33.1758C133.799 33.1758 134.256 33.2682 134.667 33.4509C135.076 33.6336 135.412 33.8923 135.675 34.2229C135.938 34.5535 136.098 34.9456 136.158 35.3973H134.938C134.835 35.0052 134.63 34.7177 134.324 34.535C134.016 34.3523 133.665 34.2599 133.267 34.2599L133.265 34.264Z" fill="white"/>
<path d="M145.234 39.8901H141.132V33.2871H145.234V34.3527H141.883L142.29 33.9831V36.0527H144.928V37.0732H142.29V39.1962L141.883 38.8266H145.234V39.8922V39.8901Z" fill="white"/>
<path d="M0 3.26948H8.24761V27.6407H11.3582V3.26948H19.6428V0.384766H0V3.26948Z" fill="white"/>
<path d="M40.618 13.3095C41.6035 11.9791 42.1024 10.3119 42.1024 8.35109C42.1024 5.90165 41.2914 3.93882 39.69 2.51802C38.0967 1.10338 35.8998 0.384766 33.1608 0.384766H22.9463V27.6386H26.0569V16.5043H33.5592L39.0329 27.6386H42.4905L36.717 15.9766C38.3657 15.4756 39.6776 14.5804 40.62 13.3075L40.618 13.3095ZM38.9159 8.42706C38.9159 10.0347 38.4149 11.322 37.4253 12.2521C36.4316 13.1863 35.0231 13.6586 33.2348 13.6586H26.0548V3.23252H33.1608C34.9266 3.23252 36.3433 3.68217 37.376 4.56914C38.3985 5.44995 38.918 6.74756 38.918 8.42501L38.9159 8.42706Z" fill="white"/>
<path d="M54.1226 0.384766L44.1113 27.6386H47.2855L49.9095 20.5162H61.9945L64.6185 27.6386H67.8686L57.7465 0.384766H54.1226ZM55.9315 4.01478C55.9787 4.15235 56.0177 4.28991 56.0526 4.42747L60.9802 17.7444H50.8848L55.7672 4.45416C55.8247 4.31865 55.8801 4.17288 55.9294 4.01478H55.9315Z" fill="white"/>
<path d="M116.893 0.384766H113.142L100.511 16.1655V0.384766H97.4023V27.6407H100.511V20.8344L105.549 14.5455L113.349 27.6407H116.977L107.613 11.9708L116.893 0.384766Z" fill="white"/>
<path d="M123.606 15.3812H135.715V12.5334H123.606V3.26948H136.951V0.384766H120.495V27.6407H136.988V24.7539H123.606V15.3812Z" fill="white"/>
<path d="M155.824 15.9786C157.472 15.4777 158.784 14.5825 159.727 13.3095C160.712 11.9791 161.211 10.3119 161.211 8.35109C161.211 5.90165 160.4 3.93882 158.799 2.51802C157.205 1.10338 155.008 0.384766 152.269 0.384766H142.055V27.6386H145.166V16.5043H152.668L158.142 27.6386H161.599L155.826 15.9766L155.824 15.9786ZM158.025 8.42706C158.025 10.0347 157.524 11.322 156.534 12.2521C155.54 13.1863 154.13 13.6586 152.343 13.6586H145.163V3.23252H152.269C154.035 3.23252 155.452 3.68217 156.485 4.56914C157.507 5.44995 158.027 6.74756 158.027 8.42501L158.025 8.42706Z" fill="white"/>
<path d="M92.3226 5.08595L92.2272 4.97848C92.1285 4.86739 91.9585 4.85729 91.8475 4.95592L89.4769 7.06063C89.3658 7.15926 89.3557 7.32926 89.4543 7.44034L89.5497 7.54782C89.6483 7.6589 89.8183 7.669 89.9294 7.57038L92.3 5.46566C92.4111 5.36704 92.4212 5.19704 92.3226 5.08595Z" fill="white"/>
<path d="M91.346 4.12565L91.2407 4.02782C91.1319 3.9267 90.9617 3.93294 90.8606 4.04176L88.6845 6.38355C88.5834 6.49236 88.5896 6.66255 88.6984 6.76367L88.8037 6.8615C88.9125 6.96262 89.0827 6.95638 89.1838 6.84757L91.36 4.50577C91.4611 4.39696 91.4548 4.22677 91.346 4.12565Z" fill="white"/>
<path d="M90.3257 3.2155L90.2115 3.12821C90.0935 3.03799 89.9247 3.06051 89.8344 3.17851L87.9402 5.65612C87.8499 5.77412 87.8725 5.94293 87.9905 6.03315L88.1047 6.12045C88.2227 6.21067 88.3915 6.18815 88.4817 6.07014L90.376 3.59254C90.4662 3.47453 90.4437 3.30573 90.3257 3.2155Z" fill="white"/>
<path d="M89.2349 2.38605L89.1129 2.3101C88.9868 2.2316 88.8209 2.2702 88.7424 2.39631L87.0954 5.04232C87.0169 5.16844 87.0555 5.3343 87.1816 5.4128L87.3036 5.48875C87.4297 5.56725 87.5956 5.52865 87.6741 5.40254L89.3211 2.75653C89.3996 2.63042 89.361 2.46455 89.2349 2.38605Z" fill="white"/>
<path d="M88.054 1.68349L87.9252 1.61959C87.7922 1.55354 87.6308 1.60786 87.5647 1.74092L86.2045 4.48111C86.1384 4.61416 86.1928 4.77557 86.3258 4.84162L86.4545 4.90552C86.5876 4.97157 86.749 4.91725 86.8151 4.78419L88.1753 2.044C88.2413 1.91095 88.187 1.74954 88.054 1.68349Z" fill="white"/>
<path d="M86.813 1.08668L86.6788 1.0354C86.54 0.982411 86.3845 1.05195 86.3315 1.19072L85.2732 3.96236C85.2202 4.10113 85.2897 4.25659 85.4285 4.30958L85.5627 4.36085C85.7015 4.41384 85.857 4.3443 85.91 4.20553L86.9683 1.4339C87.0213 1.29512 86.9518 1.13967 86.813 1.08668Z" fill="white"/>
<path d="M85.5187 0.615452L85.3802 0.577285C85.2369 0.537838 85.0889 0.621956 85.0494 0.765169L84.2714 3.58986C84.2319 3.73307 84.316 3.88114 84.4593 3.92059L84.5978 3.95876C84.741 3.99821 84.8891 3.91409 84.9286 3.77087L85.7066 0.946187C85.7461 0.802974 85.6619 0.654899 85.5187 0.615452Z" fill="white"/>
<path d="M84.1834 0.277008L84.0418 0.252298C83.8955 0.226758 83.7562 0.324682 83.7306 0.471016L83.2336 3.31884C83.208 3.46518 83.306 3.60451 83.4523 3.63005L83.5939 3.65476C83.7402 3.6803 83.8796 3.58237 83.9051 3.43604L84.4021 0.588212C84.4277 0.441878 84.3297 0.302548 84.1834 0.277008Z" fill="white"/>
<path d="M82.8214 0.0648644L82.6781 0.0538379C82.53 0.0424416 82.4007 0.153268 82.3893 0.301377L82.1678 3.17964C82.1564 3.32774 82.2672 3.45705 82.4153 3.46844L82.5586 3.47947C82.7068 3.49087 82.8361 3.38004 82.8475 3.23193L83.0689 0.353673C83.0803 0.205565 82.9695 0.0762607 82.8214 0.0648644Z" fill="white"/>
<path d="M81.4426 0.00773196L81.2989 0.0104807C81.1504 0.0133218 81.0323 0.136023 81.0352 0.284541L81.09 3.12561C81.0928 3.27413 81.2155 3.39222 81.3641 3.38938L81.5078 3.38663C81.6563 3.38379 81.7744 3.26109 81.7715 3.11257L81.7167 0.271504C81.7139 0.122986 81.5912 0.00489085 81.4426 0.00773196Z" fill="white"/>
<path d="M80.0599 0.0306915L79.9171 0.0472108C79.7695 0.0642843 79.6637 0.197747 79.6808 0.345309L80.0072 3.16604C80.0243 3.3136 80.1577 3.41938 80.3053 3.4023L80.4481 3.38579C80.5956 3.36871 80.7014 3.23525 80.6843 3.08769L80.358 0.266961C80.3409 0.1194 80.2074 0.0136181 80.0599 0.0306915Z" fill="white"/>
<path d="M78.7053 0.298259L78.5647 0.328385C78.4195 0.359523 78.327 0.502511 78.3581 0.647756L78.9215 3.27566C78.9526 3.4209 79.0956 3.5134 79.2409 3.48227L79.3814 3.45214C79.5267 3.421 79.6192 3.27802 79.588 3.13277L79.0246 0.50487C78.9935 0.359624 78.8505 0.267121 78.7053 0.298259Z" fill="white"/>
<path d="M77.358 0.594941L77.221 0.638399C77.0794 0.683315 77.001 0.83451 77.0459 0.976103L77.876 3.59271C77.9209 3.7343 78.0721 3.81267 78.2137 3.76775L78.3507 3.7243C78.4923 3.67938 78.5706 3.52819 78.5257 3.38659L77.6957 0.76999C77.6508 0.628398 77.4996 0.550025 77.358 0.594941Z" fill="white"/>
<path d="M76.0678 1.07832L75.9356 1.13471C75.799 1.19299 75.7355 1.351 75.7938 1.48764L76.8257 3.90688C76.8839 4.04351 77.0419 4.10703 77.1786 4.04875L77.3108 3.99236C77.4474 3.93408 77.5109 3.77607 77.4527 3.63944L76.4208 1.2202C76.3625 1.08356 76.2045 1.02004 76.0678 1.07832Z" fill="white"/>
<path d="M74.8169 1.65596L74.6907 1.72476C74.5603 1.79587 74.5122 1.95924 74.5833 2.08966L75.8355 4.38625C75.9066 4.51667 76.07 4.56475 76.2004 4.49364L76.3266 4.42484C76.457 4.35373 76.5051 4.19036 76.434 4.05994L75.1818 1.76336C75.1107 1.63294 74.9473 1.58486 74.8169 1.65596Z" fill="white"/>
<path d="M73.6471 2.37313L73.5281 2.4537C73.4051 2.53698 73.3729 2.70421 73.4562 2.82721L74.902 4.96261C74.9853 5.08561 75.1525 5.11782 75.2755 5.03453L75.3945 4.95396C75.5175 4.87068 75.5497 4.70345 75.4664 4.58045L74.0207 2.44505C73.9374 2.32205 73.7702 2.28984 73.6471 2.37313Z" fill="white"/>
<path d="M72.5365 3.18323L72.4258 3.27484C72.3113 3.36953 72.2953 3.53907 72.39 3.65353L73.9971 5.59623C74.0918 5.71068 74.2613 5.72671 74.3758 5.63202L74.4865 5.54041C74.601 5.44572 74.617 5.27618 74.5223 5.16172L72.9152 3.21903C72.8205 3.10457 72.6509 3.08854 72.5365 3.18323Z" fill="white"/>
<path d="M71.5071 4.09439L71.4057 4.1962C71.3008 4.30142 71.3011 4.47172 71.4063 4.57657L73.1617 6.32585C73.267 6.43071 73.4373 6.43041 73.5421 6.32519L73.6436 6.22339C73.7484 6.11816 73.7481 5.94786 73.6429 5.84301L71.8875 4.09373C71.7823 3.98888 71.612 3.98917 71.5071 4.09439Z" fill="white"/>
<path d="M70.5979 5.12055L70.5067 5.23161C70.4124 5.3464 70.429 5.51589 70.5438 5.61017L72.3921 7.12842C72.5069 7.22271 72.6764 7.20609 72.7707 7.0913L72.8619 6.98024C72.9562 6.86545 72.9396 6.69597 72.8248 6.60168L70.9764 5.08344C70.8617 4.98915 70.6922 5.00577 70.5979 5.12055Z" fill="white"/>
<path d="M69.7915 6.22876L69.7113 6.34804C69.6284 6.47134 69.6612 6.63845 69.7845 6.7213L71.7187 8.02105C71.842 8.1039 72.0092 8.07111 72.092 7.94782L72.1722 7.82853C72.255 7.70524 72.2222 7.53812 72.0989 7.45527L70.1647 6.15552C70.0414 6.07267 69.8743 6.10546 69.7915 6.22876Z" fill="white"/>
<path d="M69.0681 7.38307L68.9998 7.50949C68.9291 7.64016 68.9778 7.80337 69.1084 7.87402L71.2125 9.01169C71.3432 9.08234 71.5064 9.03369 71.577 8.90302L71.6454 8.7766C71.716 8.64593 71.6674 8.48273 71.5367 8.41207L69.4326 7.2744C69.302 7.20375 69.1388 7.2524 69.0681 7.38307Z" fill="white"/>
<path d="M68.4953 8.62082L68.4394 8.75321C68.3816 8.89005 68.4456 9.04784 68.5825 9.10564L70.6441 9.97648C70.7809 10.0343 70.9387 9.97022 70.9965 9.83338L71.0524 9.70099C71.1102 9.56415 71.0461 9.40636 70.9093 9.34856L68.8477 8.47771C68.7109 8.41991 68.5531 8.48398 68.4953 8.62082Z" fill="white"/>
<path d="M68.0841 9.91479L68.0411 10.0519C67.9967 10.1937 68.0756 10.3446 68.2174 10.389L70.3 11.0417C70.4418 11.0861 70.5927 11.0072 70.6371 10.8655L70.6801 10.7283C70.7245 10.5866 70.6456 10.4356 70.5039 10.3912L68.4212 9.73856C68.2794 9.69414 68.1285 9.77304 68.0841 9.91479Z" fill="white"/>
<path d="M67.6552 11.2046L67.6255 11.3452C67.5949 11.4906 67.6879 11.6332 67.8333 11.6639L69.993 12.119C70.1383 12.1496 70.281 12.0566 70.3116 11.9113L70.3413 11.7706C70.3719 11.6253 70.2789 11.4826 70.1335 11.452L67.9738 10.9969C67.8285 10.9662 67.6858 11.0592 67.6552 11.2046Z" fill="white"/>
<path d="M67.4762 12.5489L67.4602 12.6917C67.4436 12.8393 67.5498 12.9724 67.6975 12.989L69.7909 13.2238C69.9385 13.2403 70.0716 13.1341 70.0882 12.9865L70.1042 12.8437C70.1207 12.696 70.0145 12.5629 69.8669 12.5464L67.7734 12.3116C67.6258 12.295 67.4927 12.4013 67.4762 12.5489Z" fill="white"/>
<path d="M67.423 13.8969L67.4207 14.0406C67.4184 14.1892 67.5369 14.3115 67.6854 14.3138L69.7425 14.3461C69.891 14.3484 70.0133 14.2299 70.0156 14.0814L70.0179 13.9377C70.0202 13.7892 69.9017 13.6669 69.7532 13.6645L67.6961 13.6322C67.5476 13.6299 67.4253 13.7484 67.423 13.8969Z" fill="white"/>
<path d="M67.4686 15.2429L67.4801 15.3862C67.4921 15.5343 67.6217 15.6446 67.7698 15.6327L69.7754 15.4714C69.9235 15.4594 70.0339 15.3298 70.022 15.1817L70.0104 15.0384C69.9985 14.8904 69.8688 14.78 69.7208 14.7919L67.7151 14.9533C67.5671 14.9652 67.4567 15.0949 67.4686 15.2429Z" fill="white"/>
<path d="M67.6247 16.58L67.6499 16.7215C67.6759 16.8678 67.8156 16.9652 67.9618 16.9392L69.9852 16.5787C70.1314 16.5527 70.2289 16.413 70.2028 16.2668L70.1776 16.1253C70.1516 15.979 70.0119 15.8816 69.8657 15.9077L67.8423 16.2681C67.696 16.2941 67.5986 16.4338 67.6247 16.58Z" fill="white"/>
<path d="M67.8722 17.9053L67.9108 18.0437C67.9508 18.1868 68.0991 18.2704 68.2422 18.2304L70.2277 17.6761C70.3707 17.6361 70.4543 17.4877 70.4144 17.3447L70.3757 17.2062C70.3358 17.0632 70.1874 16.9796 70.0444 17.0195L68.0589 17.5739C67.9158 17.6138 67.8322 17.7622 67.8722 17.9053Z" fill="white"/>
<path d="M68.3363 19.1648L68.388 19.2989C68.4415 19.4375 68.5972 19.5065 68.7358 19.453L70.4751 18.7818C70.6137 18.7284 70.6827 18.5727 70.6292 18.4341L70.5775 18.3C70.524 18.1614 70.3683 18.0924 70.2297 18.1459L68.4904 18.817C68.3518 18.8705 68.2828 19.0262 68.3363 19.1648Z" fill="white"/>
<path d="M68.9312 20.3634L68.9955 20.4919C69.062 20.6247 69.2236 20.6785 69.3565 20.612L71.0032 19.7874C71.1361 19.7208 71.1898 19.5592 71.1233 19.4264L71.0589 19.2979C70.9924 19.1651 70.8308 19.1113 70.698 19.1778L69.0512 20.0025C68.9184 20.069 68.8647 20.2306 68.9312 20.3634Z" fill="white"/>
<path d="M69.589 21.5176L69.6654 21.6393C69.7444 21.7652 69.9104 21.8032 70.0362 21.7243L71.4902 20.8121C71.6161 20.7332 71.6541 20.5672 71.5752 20.4414L71.4988 20.3196C71.4199 20.1938 71.2538 20.1558 71.128 20.2347L69.674 21.1468C69.5481 21.2258 69.5101 21.3918 69.589 21.5176Z" fill="white"/>
<path d="M70.3515 22.6027L70.4392 22.7166C70.5298 22.8343 70.6987 22.8562 70.8164 22.7656L72.1275 21.7559C72.2452 21.6652 72.2671 21.4964 72.1765 21.3787L72.0888 21.2648C71.9982 21.1471 71.8293 21.1252 71.7116 21.2158L70.4005 22.2255C70.2828 22.3161 70.2608 22.485 70.3515 22.6027Z" fill="white"/>
<path d="M71.2236 23.5991L71.3218 23.704C71.4233 23.8125 71.5935 23.8181 71.702 23.7166L72.8878 22.6069C72.9963 22.5054 73.0019 22.3352 72.9004 22.2268L72.8022 22.1218C72.7007 22.0134 72.5305 22.0077 72.4221 22.1092L71.2362 23.2189C71.1278 23.3204 71.1221 23.4906 71.2236 23.5991Z" fill="white"/>
<path d="M72.1755 24.5142L72.2834 24.6092C72.3948 24.7075 72.5647 24.6968 72.663 24.5854L73.6935 23.4164C73.7918 23.305 73.7811 23.135 73.6697 23.0368L73.5618 22.9417C73.4504 22.8435 73.2805 22.8542 73.1822 22.9656L72.1517 24.1346C72.0534 24.246 72.0641 24.416 72.1755 24.5142Z" fill="white"/>
<path d="M73.186 25.3625L73.3024 25.4468C73.4227 25.5339 73.5909 25.5069 73.678 25.3866L74.5894 24.1276C74.6765 24.0073 74.6495 23.8391 74.5292 23.752L74.4128 23.6677C74.2924 23.5806 74.1243 23.6076 74.0372 23.7279L73.1258 24.9869C73.0387 25.1072 73.0656 25.2754 73.186 25.3625Z" fill="white"/>
<path d="M74.259 26.1378L74.383 26.2106C74.5111 26.2857 74.6759 26.2428 74.7511 26.1147L75.5303 24.7865C75.6055 24.6584 75.5626 24.4936 75.4344 24.4184L75.3105 24.3457C75.1824 24.2705 75.0176 24.3135 74.9424 24.4416L74.1632 25.7698C74.088 25.8979 74.1309 26.0627 74.259 26.1378Z" fill="white"/>
<path d="M75.4604 26.6817L75.5908 26.7422C75.7255 26.8048 75.8854 26.7462 75.948 26.6115L76.541 25.334C76.6035 25.1992 76.545 25.0393 76.4103 24.9767L76.2799 24.9162C76.1452 24.8537 75.9852 24.9122 75.9227 25.0469L75.3297 26.3245C75.2671 26.4592 75.3257 26.6192 75.4604 26.6817Z" fill="white"/>
<path d="M76.6505 27.2545L76.7861 27.3023C76.9262 27.3516 77.0798 27.278 77.1291 27.1379L77.6174 25.7513C77.6668 25.6112 77.5932 25.4576 77.4531 25.4083L77.3175 25.3605C77.1774 25.3112 77.0238 25.3848 76.9745 25.5249L76.4862 26.9115C76.4368 27.0516 76.5104 27.2052 76.6505 27.2545Z" fill="white"/>
<path d="M77.9146 27.6196L78.0541 27.6541C78.1983 27.6898 78.3441 27.6019 78.3798 27.4577L78.7275 26.0526C78.7632 25.9084 78.6752 25.7625 78.5311 25.7269L78.3915 25.6923C78.2473 25.6566 78.1015 25.7446 78.0658 25.8888L77.7181 27.2939C77.6824 27.4381 77.7704 27.5839 77.9146 27.6196Z" fill="white"/>
<path d="M79.1989 27.9055L79.3411 27.9265C79.488 27.9482 79.6248 27.8467 79.6465 27.6997L79.8525 26.3043C79.8742 26.1574 79.7727 26.0207 79.6257 25.999L79.4836 25.978C79.3366 25.9563 79.1999 26.0578 79.1782 26.2048L78.9721 27.6002C78.9504 27.7471 79.052 27.8838 79.1989 27.9055Z" fill="white"/>
<path d="M80.5065 28.0065L80.6501 28.0137C80.7984 28.0213 80.9248 27.9071 80.9323 27.7587L80.9988 26.4464C81.0063 26.298 80.8921 26.1717 80.7438 26.1641L80.6002 26.1569C80.4519 26.1494 80.3255 26.2635 80.318 26.4119L80.2515 27.7242C80.244 27.8726 80.3582 27.9989 80.5065 28.0065Z" fill="white"/>
<path d="M81.816 28.0109L81.9596 28.0044C82.108 27.9977 82.2228 27.8719 82.2161 27.7235L82.1604 26.497C82.1536 26.3486 82.0279 26.2337 81.8795 26.2405L81.7359 26.247C81.5875 26.2537 81.4727 26.3795 81.4794 26.5279L81.5351 27.7544C81.5419 27.9028 81.6676 28.0176 81.816 28.0109Z" fill="white"/>
<path d="M83.1183 27.896L83.2606 27.8758C83.4076 27.8549 83.5099 27.7187 83.489 27.5716L83.333 26.476C83.3121 26.3289 83.1759 26.2267 83.0288 26.2476L82.8866 26.2679C82.7395 26.2888 82.6372 26.425 82.6582 26.572L82.8141 27.6677C82.835 27.8147 82.9712 27.917 83.1183 27.896Z" fill="white"/>
<path d="M84.4045 27.6742L84.5442 27.6404C84.6886 27.6055 84.7773 27.4601 84.7424 27.3157L84.4967 26.3C84.4618 26.1556 84.3164 26.0668 84.172 26.1018L84.0323 26.1356C83.8879 26.1705 83.7992 26.3159 83.8341 26.4602L84.0799 27.476C84.1148 27.6204 84.2602 27.7091 84.4045 27.6742Z" fill="white"/>
<path d="M85.6725 27.346L85.8083 27.2989C85.9487 27.2503 86.0231 27.0971 85.9745 26.9568L85.6493 26.0177C85.6007 25.8774 85.4475 25.803 85.3072 25.8516L85.1713 25.8986C85.031 25.9472 84.9566 26.1004 85.0052 26.2408L85.3304 27.1798C85.379 27.3202 85.5322 27.3946 85.6725 27.346Z" fill="white"/>
<path d="M86.9136 26.9277L87.0443 26.8678C87.1793 26.806 87.2387 26.6464 87.1769 26.5113L86.7546 25.5891C86.6928 25.454 86.5332 25.3947 86.3981 25.4565L86.2674 25.5163C86.1324 25.5782 86.073 25.7378 86.1348 25.8729L86.5571 26.7951C86.6189 26.9301 86.7785 26.9895 86.9136 26.9277Z" fill="white"/>
<path d="M88.0919 26.3427L88.2163 26.2706C88.3448 26.1961 88.3886 26.0316 88.3141 25.903L87.8034 25.022C87.7289 24.8935 87.5643 24.8497 87.4358 24.9242L87.3114 24.9963C87.1829 25.0708 87.1391 25.2353 87.2136 25.3639L87.7244 26.2449C87.7989 26.3734 87.9634 26.4172 88.0919 26.3427Z" fill="white"/>
<path d="M89.2064 25.6533L89.3233 25.5697C89.4441 25.4832 89.4719 25.3152 89.3854 25.1944L88.8703 24.4749C88.7838 24.3541 88.6158 24.3263 88.495 24.4127L88.3782 24.4964C88.2574 24.5829 88.2296 24.7509 88.316 24.8717L88.8312 25.5912C88.9176 25.712 89.0857 25.7398 89.2064 25.6533Z" fill="white"/>
<path d="M90.2471 24.8572L90.3554 24.7627C90.4674 24.6651 90.4789 24.4952 90.3813 24.3833L89.8455 23.769C89.7478 23.6571 89.5779 23.6455 89.466 23.7431L89.3577 23.8376C89.2457 23.9353 89.2341 24.1052 89.3318 24.2171L89.8676 24.8314C89.9653 24.9433 90.1352 24.9549 90.2471 24.8572Z" fill="white"/>
<path d="M91.2311 23.9815L91.3298 23.8771C91.4319 23.7691 91.4272 23.5989 91.3192 23.4968L90.7449 22.9537C90.637 22.8516 90.4667 22.8564 90.3647 22.9643L90.2659 23.0688C90.1638 23.1767 90.1686 23.3469 90.2765 23.449L90.8509 23.9921C90.9588 24.0942 91.129 24.0894 91.2311 23.9815Z" fill="white"/>
<path d="M92.1203 23.0131L92.2086 22.8997C92.2998 22.7825 92.2788 22.6135 92.1615 22.5223L91.5896 22.0771C91.4724 21.9858 91.3034 22.0069 91.2122 22.1241L91.1239 22.2375C91.0326 22.3547 91.0537 22.5237 91.1709 22.6149L91.7428 23.0602C91.86 23.1514 92.029 23.1304 92.1203 23.0131Z" fill="white"/>
<path d="M92.9222 21.9647L92.9992 21.8433C93.0788 21.7179 93.0416 21.5517 92.9162 21.4721L92.3719 21.1266C92.2465 21.047 92.0803 21.0842 92.0007 21.2096L91.9237 21.331C91.8441 21.4564 91.8812 21.6226 92.0066 21.7022L92.551 22.0476C92.6764 22.1272 92.8426 22.0901 92.9222 21.9647Z" fill="white"/>
</svg>
