<svg width="20" height="20" viewBox="0 0 20 20" fill="none" xmlns="http://www.w3.org/2000/svg">
<path d="M17.4999 13.6901V15.9401C17.5008 16.1489 17.458 16.3557 17.3743 16.5471C17.2907 16.7385 17.1679 16.9103 17.014 17.0515C16.8601 17.1927 16.6784 17.3002 16.4805 17.3671C16.2826 17.434 16.073 17.4589 15.8649 17.4401C13.5571 17.1893 11.3402 16.4007 9.39245 15.1376C7.58032 13.9861 6.04395 12.4497 4.89245 10.6376C3.62493 8.68098 2.83613 6.45332 2.58995 4.13507C2.57121 3.92767 2.59586 3.71864 2.66233 3.52129C2.72879 3.32394 2.83563 3.14259 2.97602 2.98879C3.11642 2.83499 3.2873 2.7121 3.47779 2.62796C3.66828 2.54382 3.87421 2.50027 4.08245 2.50007H6.33245C6.69643 2.49649 7.04929 2.62538 7.32527 2.86272C7.60125 3.10006 7.78151 3.42966 7.83245 3.79007C7.92742 4.51012 8.10354 5.21712 8.35745 5.89757C8.45836 6.16602 8.4802 6.45776 8.42038 6.73823C8.36056 7.01871 8.2216 7.27616 8.01995 7.48007L7.06745 8.43257C8.13512 10.3102 9.68979 11.8649 11.5675 12.9326L12.5199 11.9801C12.7239 11.7784 12.9813 11.6395 13.2618 11.5796C13.5423 11.5198 13.834 11.5417 14.1024 11.6426C14.7829 11.8965 15.4899 12.0726 16.21 12.1676C16.5743 12.219 16.907 12.4025 17.1448 12.6832C17.3827 12.9639 17.5091 13.3223 17.4999 13.6901Z" stroke="#264132" stroke-width="1.5" stroke-linecap="round" stroke-linejoin="round"/>
</svg>
