<svg width="25" height="24" viewBox="0 0 25 24" fill="none" xmlns="http://www.w3.org/2000/svg">
<path d="M11.6033 4.81663C11.9701 4.07346 13.0299 4.07346 13.3967 4.81663L15.0486 8.16309C15.1941 8.45794 15.4753 8.6624 15.8006 8.70995L19.4962 9.25012C20.3161 9.36996 20.6429 10.3778 20.0493 10.956L17.3768 13.559C17.1409 13.7887 17.0333 14.1199 17.0889 14.4444L17.7194 18.1206C17.8595 18.9376 17.002 19.5606 16.2684 19.1747L12.9655 17.4378C12.6741 17.2845 12.3259 17.2845 12.0345 17.4378L8.73163 19.1747C7.998 19.5606 7.14045 18.9376 7.28057 18.1206L7.91109 14.4444C7.96675 14.1199 7.85908 13.7887 7.62321 13.559L4.95068 10.956C4.35709 10.3778 4.68387 9.36996 5.50378 9.25012L9.19937 8.70995C9.52472 8.6624 9.80591 8.45794 9.95145 8.16309L11.6033 4.81663Z" fill="#D2F072"/>
</svg>
