<svg width="166" height="166" viewBox="0 0 166 166" fill="none" xmlns="http://www.w3.org/2000/svg">
<g clip-path="url(#clip0_2403_905)">
<path d="M140.839 0H25.1614C11.2652 0 0 11.2652 0 25.1614V140.839C0 154.735 11.2652 166 25.1614 166H140.839C154.735 166 166 154.735 166 140.839V25.1614C166 11.2652 154.735 0 140.839 0Z" fill="#C5EF69"/>
<path d="M137.894 45.2528L136.089 43.1546C136.047 43.1059 135.973 43.1004 135.925 43.1423L123.729 53.6364C123.68 53.6783 123.674 53.7516 123.716 53.8003L125.522 55.8985C125.564 55.9472 125.637 55.9527 125.686 55.9108L137.882 45.4167C137.93 45.3748 137.936 45.3015 137.894 45.2528Z" fill="#0F0F0F"/>
<path d="M133.721 40.8962L131.723 38.9807C131.676 38.9363 131.603 38.9378 131.559 38.9841L120.347 50.6798C120.302 50.7261 120.304 50.7996 120.35 50.8441L122.348 52.7596C122.395 52.804 122.468 52.8025 122.513 52.7561L133.724 41.0605C133.769 41.0142 133.767 40.9406 133.721 40.8962Z" fill="#0F0F0F"/>
<path d="M129.364 36.7323L127.191 35.0171C127.141 34.9773 127.068 34.9859 127.028 35.0363L117.205 47.4791C117.165 47.5294 117.173 47.6025 117.224 47.6423L119.396 49.3575C119.447 49.3972 119.52 49.3886 119.56 49.3383L129.383 36.8955C129.423 36.8451 129.414 36.772 129.364 36.7323Z" fill="#0F0F0F"/>
<path d="M124.673 32.9219L122.346 31.4228C122.292 31.3881 122.221 31.4036 122.186 31.4576L113.603 44.7811C113.568 44.8351 113.583 44.907 113.637 44.9417L115.964 46.4408C116.018 46.4755 116.09 46.46 116.125 46.406L124.708 33.0825C124.743 33.0286 124.727 32.9567 124.673 32.9219Z" fill="#0F0F0F"/>
<path d="M119.577 29.6714L117.117 28.4023C117.06 28.3729 116.99 28.3952 116.96 28.4523L109.81 42.3121C109.78 42.3692 109.803 42.4392 109.86 42.4687L112.32 43.7378C112.377 43.7672 112.447 43.7448 112.476 43.6878L119.627 29.828C119.656 29.7709 119.634 29.7008 119.577 29.6714Z" fill="#0F0F0F"/>
<path d="M114.209 26.8641L111.639 25.8365C111.58 25.8127 111.512 25.8417 111.488 25.9013L105.848 40.0089C105.825 40.0685 105.854 40.1361 105.913 40.1599L108.483 41.1875C108.543 41.2113 108.611 41.1823 108.634 41.1227L114.274 27.0151C114.298 26.9555 114.269 26.8879 114.209 26.8641Z" fill="#0F0F0F"/>
<path d="M108.575 24.5986L105.918 23.8221C105.857 23.8041 105.792 23.8395 105.774 23.9011L101.56 38.321C101.542 38.3826 101.578 38.4471 101.639 38.4651L104.296 39.2415C104.358 39.2595 104.422 39.2242 104.44 39.1626L108.654 24.7427C108.672 24.6811 108.637 24.6166 108.575 24.5986Z" fill="#0F0F0F"/>
<path d="M102.744 22.9193L100.025 22.4011C99.9622 22.3891 99.9013 22.4304 99.8893 22.4935L97.1087 37.0837C97.0967 37.1468 97.1381 37.2076 97.2011 37.2196L99.9202 37.7378C99.9833 37.7498 100.044 37.7085 100.056 37.6454L102.837 23.0552C102.849 22.9921 102.807 22.9313 102.744 22.9193Z" fill="#0F0F0F"/>
<path d="M96.7692 21.7979L94.013 21.5427C93.9491 21.5368 93.8925 21.5838 93.8866 21.6477L92.5183 36.4249C92.5124 36.4888 92.5594 36.5454 92.6233 36.5513L95.3796 36.8065C95.4435 36.8125 95.5001 36.7655 95.506 36.7016L96.8742 21.9244C96.8802 21.8605 96.8331 21.8039 96.7692 21.7979Z" fill="#0F0F0F"/>
<path d="M90.7141 21.3475L87.946 21.3576C87.8819 21.3578 87.83 21.4101 87.8303 21.4742L87.8839 36.1153C87.8842 36.1795 87.9364 36.2313 88.0005 36.2311L90.7686 36.221C90.8328 36.2207 90.8846 36.1685 90.8844 36.1043L90.8307 21.4632C90.8305 21.3991 90.7782 21.3472 90.7141 21.3475Z" fill="#0F0F0F"/>
<path d="M84.6248 21.2494L81.8704 21.5248C81.8066 21.5312 81.76 21.5881 81.7664 21.652L83.2214 36.204C83.2278 36.2679 83.2848 36.3145 83.3486 36.3081L86.1029 36.0327C86.1668 36.0263 86.2134 35.9693 86.207 35.9055L84.7519 21.3535C84.7456 21.2896 84.6886 21.243 84.6248 21.2494Z" fill="#0F0F0F"/>
<path d="M78.6245 22.2269L75.9092 22.765C75.8463 22.7775 75.8053 22.8387 75.8178 22.9016L78.5326 36.5999C78.5451 36.6629 78.6063 36.7038 78.6692 36.6913L81.3845 36.1532C81.4474 36.1407 81.4883 36.0796 81.4759 36.0166L78.761 22.3183C78.7486 22.2553 78.6874 22.2144 78.6245 22.2269Z" fill="#0F0F0F"/>
<path d="M72.6468 23.3454L69.9956 24.1413C69.9342 24.1597 69.8993 24.2245 69.9177 24.286L74.0046 37.8995C74.023 37.961 74.0878 37.9959 74.1493 37.9774L76.8005 37.1815C76.8619 37.1631 76.8968 37.0983 76.8783 37.0368L72.7915 23.4233C72.773 23.3618 72.7083 23.3269 72.6468 23.3454Z" fill="#0F0F0F"/>
<path d="M66.896 25.2833L64.3333 26.3296C64.2739 26.3539 64.2454 26.4217 64.2696 26.4811L69.4511 39.1715C69.4753 39.231 69.5432 39.2595 69.6026 39.2352L72.1653 38.1889C72.2247 38.1646 72.2532 38.0968 72.2289 38.0374L67.0475 25.347C67.0232 25.2875 66.9554 25.259 66.896 25.2833Z" fill="#0F0F0F"/>
<path d="M61.309 27.6482L58.8584 28.9353C58.8016 28.9651 58.7797 29.0354 58.8095 29.0922L65.1545 41.1725C65.1843 41.2293 65.2546 41.2512 65.3114 41.2213L67.762 39.9342C67.8188 39.9043 67.8407 39.8341 67.8108 39.7773L61.4659 27.697C61.436 27.6402 61.3658 27.6183 61.309 27.6482Z" fill="#0F0F0F"/>
<path d="M56.0419 30.6437L53.726 32.1598C53.6723 32.1949 53.6573 32.2669 53.6924 32.3206L61.0797 43.6052C61.1148 43.6589 61.1868 43.6739 61.2405 43.6388L63.5565 42.1227C63.6102 42.0875 63.6252 42.0155 63.59 41.9618L56.2028 30.6773C56.1677 30.6236 56.0956 30.6085 56.0419 30.6437Z" fill="#0F0F0F"/>
<path d="M51.0364 34.0529L48.8764 35.784C48.8264 35.8242 48.8183 35.8973 48.8584 35.9474L57.1323 46.2712C57.1725 46.3213 57.2456 46.3293 57.2957 46.2892L59.4556 44.5581C59.5057 44.518 59.5138 44.4448 59.4736 44.3948L51.1997 34.071C51.1596 34.0209 51.0865 34.0128 51.0364 34.0529Z" fill="#0F0F0F"/>
<path d="M46.3831 37.9104L44.399 39.8406C44.353 39.8853 44.3519 39.9589 44.3967 40.0049L53.4889 49.3513C53.5336 49.3973 53.6072 49.3983 53.6532 49.3536L55.6373 47.4234C55.6833 47.3787 55.6843 47.3051 55.6396 47.2591L46.5474 37.9127C46.5026 37.8667 46.4291 37.8657 46.3831 37.9104Z" fill="#0F0F0F"/>
<path d="M42.2426 42.3035L40.4526 44.4149C40.4111 44.4638 40.4171 44.5372 40.4661 44.5787L50.1241 52.7664C50.1731 52.8079 50.2464 52.8019 50.2879 52.7529L52.0779 50.6415C52.1194 50.5925 52.1134 50.5192 52.0644 50.4777L42.4063 42.29C42.3574 42.2485 42.2841 42.2545 42.2426 42.3035Z" fill="#0F0F0F"/>
<path d="M38.5407 47.0505L36.9613 49.3237C36.9247 49.3764 36.9377 49.4489 36.9904 49.4855L47.1673 56.5559C47.22 56.5925 47.2924 56.5795 47.329 56.5268L48.9084 54.2535C48.945 54.2008 48.932 54.1284 48.8793 54.0918L38.7024 47.0214C38.6497 46.9847 38.5773 46.9978 38.5407 47.0505Z" fill="#0F0F0F"/>
<path d="M35.1896 52.0385L33.8354 54.4526C33.804 54.5086 33.8239 54.5794 33.8799 54.6108L44.9228 60.8053C44.9788 60.8367 45.0496 60.8168 45.081 60.7608L46.4352 58.3466C46.4666 58.2907 46.4467 58.2198 46.3907 58.1884L35.3478 51.994C35.2919 51.9626 35.221 51.9825 35.1896 52.0385Z" fill="#0F0F0F"/>
<path d="M32.481 57.3938L31.3644 59.9267C31.3385 59.9854 31.3651 60.054 31.4238 60.0799L42.3907 64.9145C42.4494 64.9404 42.518 64.9138 42.5439 64.8551L43.6604 62.3222C43.6863 62.2635 43.6597 62.1949 43.601 62.169L32.6342 57.3344C32.5754 57.3085 32.5069 57.3351 32.481 57.3938Z" fill="#0F0F0F"/>
<path d="M30.485 63.0314L29.6163 65.6596C29.5962 65.7205 29.6292 65.7863 29.6902 65.8064L40.8335 69.4895C40.8944 69.5097 40.9601 69.4766 40.9803 69.4157L41.8489 66.7875C41.8691 66.7265 41.836 66.6608 41.7751 66.6407L30.6318 62.9575C30.5709 62.9374 30.5051 62.9705 30.485 63.0314Z" fill="#0F0F0F"/>
<path d="M28.419 68.6493L27.8062 71.3487C27.792 71.4113 27.8313 71.4735 27.8938 71.4877L39.4481 74.1107C39.5107 74.1249 39.5729 74.0857 39.5871 74.0231L40.1999 71.3237C40.2141 71.2611 40.1749 71.1989 40.1123 71.1847L28.5581 68.5617C28.4955 68.5475 28.4332 68.5867 28.419 68.6493Z" fill="#0F0F0F"/>
<path d="M27.4331 74.5383L27.0819 77.284C27.0737 77.3476 27.1187 77.4058 27.1824 77.414L38.4944 78.8611C38.5581 78.8692 38.6163 78.8242 38.6244 78.7606L38.9757 76.0149C38.9838 75.9512 38.9388 75.893 38.8751 75.8849L27.5631 74.4378C27.4995 74.4296 27.4413 74.4747 27.4331 74.5383Z" fill="#0F0F0F"/>
<path d="M27.0154 80.4528L26.9289 83.2195C26.9269 83.2837 26.9773 83.3373 27.0414 83.3393L38.2244 83.6888C38.2885 83.6908 38.3421 83.6404 38.3442 83.5763L38.4306 80.8096C38.4326 80.7454 38.3822 80.6918 38.3181 80.6898L27.1352 80.3403C27.071 80.3383 27.0174 80.3887 27.0154 80.4528Z" fill="#0F0F0F"/>
<path d="M27.0087 86.3915L27.1878 89.1538C27.1919 89.2178 27.2472 89.2664 27.3113 89.2622L38.2816 88.5509C38.3456 88.5467 38.3942 88.4914 38.39 88.4274L38.2109 85.6651C38.2068 85.6011 38.1515 85.5526 38.0874 85.5567L27.1171 86.2681C27.0531 86.2722 27.0045 86.3275 27.0087 86.3915Z" fill="#0F0F0F"/>
<path d="M27.4971 92.289L27.9401 95.0213C27.9504 95.0847 28.0101 95.1277 28.0734 95.1174L39.1094 93.328C39.1728 93.3178 39.2158 93.2581 39.2055 93.1947L38.7625 90.4624C38.7522 90.399 38.6925 90.356 38.6292 90.3663L27.5932 92.1557C27.5299 92.1659 27.4868 92.2256 27.4971 92.289Z" fill="#0F0F0F"/>
<path d="M28.4023 98.1519L29.1051 100.829C29.1214 100.891 29.185 100.928 29.247 100.912L40.0888 98.0658C40.1509 98.0495 40.188 97.986 40.1717 97.9239L39.4688 95.2466C39.4525 95.1845 39.389 95.1474 39.3269 95.1637L28.4851 98.01C28.4231 98.0263 28.386 98.0898 28.4023 98.1519Z" fill="#0F0F0F"/>
<path d="M30.2695 103.765L31.2257 106.362C31.2479 106.423 31.3147 106.454 31.3749 106.431L41.0761 102.86C41.1363 102.838 41.1672 102.771 41.145 102.711L40.1888 100.113C40.1666 100.053 40.0998 100.022 40.0396 100.044L30.3384 103.616C30.2781 103.638 30.2473 103.705 30.2695 103.765Z" fill="#0F0F0F"/>
<path d="M32.6935 109.123L33.8943 111.617C33.9221 111.675 33.9916 111.699 34.0494 111.671L43.2776 107.228C43.3355 107.2 43.3598 107.131 43.3319 107.073L42.1311 104.579C42.1033 104.521 42.0338 104.497 41.976 104.525L32.7478 108.968C32.6899 108.996 32.6656 109.065 32.6935 109.123Z" fill="#0F0F0F"/>
<path d="M35.4329 114.299L36.8673 116.666C36.9005 116.721 36.972 116.739 37.0269 116.705L45.3147 111.684C45.3696 111.651 45.3871 111.579 45.3539 111.524L43.9195 109.157C43.8863 109.102 43.8148 109.085 43.7599 109.118L35.4721 114.139C35.4172 114.172 35.3997 114.244 35.4329 114.299Z" fill="#0F0F0F"/>
<path d="M38.627 119.19L40.2816 121.409C40.32 121.461 40.3928 121.471 40.4442 121.433L47.9897 115.807C48.0412 115.768 48.0518 115.695 48.0134 115.644L46.3588 113.425C46.3204 113.373 46.2476 113.363 46.1962 113.401L38.6507 119.027C38.5992 119.066 38.5886 119.139 38.627 119.19Z" fill="#0F0F0F"/>
<path d="M42.3242 123.693L44.1839 125.743C44.227 125.791 44.3005 125.794 44.348 125.751L51.2212 119.517C51.2687 119.474 51.2723 119.4 51.2292 119.353L49.3695 117.302C49.3263 117.255 49.2529 117.251 49.2053 117.294L42.3322 123.529C42.2847 123.572 42.2811 123.645 42.3242 123.693Z" fill="#0F0F0F"/>
<path d="M46.3675 127.86L48.4151 129.723C48.4626 129.766 48.5361 129.762 48.5793 129.715L54.6306 123.062C54.6737 123.015 54.6703 122.941 54.6228 122.898L52.5751 121.036C52.5277 120.992 52.4542 120.996 52.411 121.043L46.3597 127.696C46.3165 127.743 46.32 127.817 46.3675 127.86Z" fill="#0F0F0F"/>
<path d="M50.6884 131.752L52.9051 133.409C52.9565 133.448 53.0293 133.437 53.0678 133.386L58.4436 126.197C58.482 126.146 58.4715 126.073 58.4201 126.035L56.2034 124.377C56.152 124.339 56.0792 124.349 56.0407 124.4L50.6649 131.589C50.6265 131.64 50.637 131.713 50.6884 131.752Z" fill="#0F0F0F"/>
<path d="M55.2938 135.306L57.6592 136.744C57.7141 136.777 57.7856 136.76 57.8189 136.705L62.4487 129.087C62.482 129.032 62.4646 128.961 62.4097 128.928L60.0443 127.49C59.9894 127.457 59.918 127.474 59.8846 127.529L55.2549 135.147C55.2215 135.201 55.239 135.273 55.2938 135.306Z" fill="#0F0F0F"/>
<path d="M60.5031 137.884L62.9955 139.088C63.0532 139.116 63.1227 139.092 63.1507 139.034L66.7762 131.531C66.8041 131.473 66.7799 131.404 66.7221 131.376L64.2298 130.171C64.172 130.143 64.1025 130.168 64.0746 130.225L60.4491 137.729C60.4211 137.786 60.4453 137.856 60.5031 137.884Z" fill="#0F0F0F"/>
<path d="M65.6481 140.582L68.2444 141.542C68.3046 141.564 68.3714 141.533 68.3937 141.473L71.377 133.404C71.3992 133.344 71.3685 133.277 71.3083 133.255L68.712 132.295C68.6518 132.273 68.5849 132.303 68.5627 132.364L65.5794 140.433C65.5572 140.493 65.5879 140.56 65.6481 140.582Z" fill="#0F0F0F"/>
<path d="M71.1605 142.376L73.8369 143.083C73.8989 143.099 73.9625 143.062 73.9789 143L76.1507 134.774C76.167 134.712 76.13 134.649 76.068 134.632L73.3916 133.926C73.3296 133.909 73.266 133.946 73.2496 134.008L71.0778 142.234C71.0615 142.296 71.0985 142.36 71.1605 142.376Z" fill="#0F0F0F"/>
<path d="M76.7736 143.836L79.5053 144.283C79.5687 144.294 79.6284 144.251 79.6388 144.187L80.9847 135.959C80.995 135.896 80.9521 135.836 80.8887 135.826L78.157 135.379C78.0937 135.369 78.0339 135.412 78.0236 135.475L76.6777 143.703C76.6673 143.766 76.7102 143.826 76.7736 143.836Z" fill="#0F0F0F"/>
<path d="M82.5147 144.472L85.2767 144.655C85.3407 144.659 85.3961 144.61 85.4003 144.546L85.9234 136.65C85.9277 136.586 85.8792 136.53 85.8152 136.526L83.0532 136.343C82.9891 136.339 82.9338 136.387 82.9296 136.451L82.4064 144.348C82.4022 144.412 82.4507 144.467 82.5147 144.472Z" fill="#0F0F0F"/>
<path d="M88.2742 144.679L91.041 144.597C91.1052 144.595 91.1556 144.541 91.1537 144.477L90.9288 136.944C90.9269 136.88 90.8733 136.829 90.8092 136.831L88.0424 136.914C87.9782 136.916 87.9278 136.969 87.9297 137.033L88.1546 144.566C88.1565 144.631 88.2101 144.681 88.2742 144.679Z" fill="#0F0F0F"/>
<path d="M94.0232 144.36L96.7694 144.013C96.833 144.005 96.8781 143.947 96.8701 143.883L95.9914 136.937C95.9833 136.874 95.9252 136.828 95.8615 136.836L93.1154 137.184C93.0517 137.192 93.0066 137.25 93.0147 137.314L93.8933 144.259C93.9014 144.323 93.9595 144.368 94.0232 144.36Z" fill="#0F0F0F"/>
<path d="M99.7267 143.575L102.427 142.966C102.49 142.951 102.529 142.889 102.515 142.827L101.033 136.256C101.019 136.194 100.956 136.154 100.894 136.168L98.1937 136.777C98.1311 136.792 98.0918 136.854 98.1059 136.916L99.5878 143.487C99.6019 143.549 99.6641 143.589 99.7267 143.575Z" fill="#0F0F0F"/>
<path d="M105.346 142.322L107.975 141.457C108.036 141.437 108.069 141.371 108.049 141.31L106.016 135.129C105.996 135.068 105.93 135.034 105.869 135.055L103.239 135.92C103.179 135.94 103.145 136.005 103.165 136.066L105.199 142.248C105.219 142.309 105.285 142.342 105.346 142.322Z" fill="#0F0F0F"/>
<path d="M110.89 140.667L113.424 139.554C113.483 139.528 113.51 139.459 113.484 139.401L110.831 133.359C110.805 133.3 110.736 133.274 110.678 133.3L108.143 134.413C108.084 134.438 108.058 134.507 108.084 134.566L110.737 140.607C110.763 140.666 110.831 140.693 110.89 140.667Z" fill="#0F0F0F"/>
<path d="M116.15 138.264L118.566 136.914C118.622 136.882 118.642 136.812 118.61 136.755L115.38 130.978C115.349 130.922 115.278 130.902 115.222 130.933L112.806 132.284C112.75 132.315 112.73 132.386 112.761 132.442L115.991 138.22C116.023 138.276 116.094 138.296 116.15 138.264Z" fill="#0F0F0F"/>
<path d="M121.169 135.393L123.444 133.817C123.497 133.78 123.51 133.708 123.473 133.655L120.04 128.698C120.003 128.646 119.931 128.632 119.878 128.669L117.603 130.245C117.55 130.282 117.537 130.354 117.573 130.407L121.007 135.364C121.043 135.417 121.116 135.43 121.169 135.393Z" fill="#0F0F0F"/>
<path d="M125.876 132.038L127.99 130.251C128.039 130.21 128.045 130.136 128.004 130.087L124.312 125.72C124.27 125.671 124.197 125.665 124.148 125.706L122.034 127.493C121.985 127.535 121.979 127.608 122.02 127.657L125.712 132.024C125.754 132.073 125.827 132.08 125.876 132.038Z" fill="#0F0F0F"/>
<path d="M130.327 128.336L132.26 126.354C132.305 126.308 132.304 126.235 132.258 126.19L128.236 122.266C128.19 122.221 128.116 122.222 128.071 122.268L126.138 124.25C126.094 124.296 126.094 124.369 126.14 124.414L130.163 128.338C130.209 128.383 130.282 128.382 130.327 128.336Z" fill="#0F0F0F"/>
<path d="M134.395 124.199L136.129 122.042C136.17 121.992 136.162 121.919 136.112 121.878L131.958 118.54C131.908 118.5 131.835 118.508 131.795 118.558L130.061 120.716C130.021 120.766 130.029 120.839 130.079 120.879L134.232 124.217C134.282 124.257 134.355 124.249 134.395 124.199Z" fill="#0F0F0F"/>
<path d="M138.069 119.699L139.588 117.386C139.623 117.332 139.608 117.26 139.555 117.225L135.395 114.493C135.342 114.458 135.27 114.473 135.234 114.527L133.715 116.841C133.68 116.894 133.695 116.966 133.748 117.002L137.908 119.733C137.961 119.768 138.033 119.753 138.069 119.699Z" fill="#0F0F0F"/>
<path d="M66.9664 68.2682H84.9691V121.463H91.7585V68.2682H109.844V61.9685H66.9664V68.2682Z" fill="black"/>
</g>
<defs>
<clipPath id="clip0_2403_905">
<rect width="166" height="166" fill="white"/>
</clipPath>
</defs>
</svg>
