<svg width="64" height="64" viewBox="0 0 64 64" fill="none" xmlns="http://www.w3.org/2000/svg">
<path d="M0 8C0 3.58172 3.58172 0 8 0H56C60.4183 0 64 3.58172 64 8V56C64 60.4183 60.4183 64 56 64H8C3.58172 64 0 60.4183 0 56V8Z" fill="#D2F072"/>
<path d="M32 14.2224C27.5817 14.2224 24 17.8041 24 22.2224C24 26.6407 27.5817 30.2224 32 30.2224C36.4183 30.2224 40 26.6407 40 22.2224C40 17.8041 36.4183 14.2224 32 14.2224Z" fill="#264132"/>
<path d="M32 32.0002C23.5418 32.0002 17.6296 38.2599 16.8967 46.056C16.8499 46.5543 17.0152 47.0492 17.3521 47.4192C17.689 47.7893 18.1663 48.0002 18.6667 48.0002H45.3334C45.8338 48.0002 46.3111 47.7893 46.648 47.4192C46.9849 47.0492 47.1502 46.5543 47.1033 46.056C46.3704 38.2599 40.4583 32.0002 32 32.0002Z" fill="#264132"/>
</svg>
