<svg width="20" height="20" viewBox="0 0 20 20" fill="none" xmlns="http://www.w3.org/2000/svg">
<path d="M10.4978 3C6.41412 3.00127 3.00231 6.41748 3.00233 10.4978C3.00234 11.9688 3.44016 13.422 4.25733 14.6504L3 17.9956L7.2103 17.2343C8.23879 17.7369 9.36817 17.9888 10.4978 17.9895C14.585 17.9923 18 14.5807 18 10.4978C18 6.41962 14.5838 2.99759 10.4978 3Z" stroke="#264132" stroke-width="1.5" stroke-linecap="round" stroke-linejoin="round"/>
<path d="M10.9106 13.7996C11.925 14.4508 12.9825 13.9765 13.719 13.4272C14.2277 13.0478 14.2108 12.316 13.7763 11.8534L12.9196 10.9413C12.5945 11.2663 11.9612 11.4272 11.5212 11.2932C10.5753 11.0054 10.1783 10.5125 9.85662 10.0114C9.48714 9.43577 9.90439 8.57614 10.2294 8.25114L9.2744 7.37929C8.87178 7.01175 8.26025 6.94973 7.90896 7.36661C7.21392 8.1914 6.78166 9.44362 7.29358 10.2409C8.21256 11.6723 9.47923 12.8808 10.9106 13.7996Z" stroke="#264132" stroke-width="1.5" stroke-linecap="round" stroke-linejoin="round"/>
</svg>
